<mxfile host="app.diagrams.net" agent="Mozilla/5.0 (Windows NT 10.0; Win64; x64) AppleWebKit/537.36 (KHTML, like Gecko) Chrome/131.0.0.0 Safari/537.36" version="25.0.3">
  <diagram name="Page-1" id="opjqi2FO9Tz07l-ph-9i">
    <mxGraphModel dx="1348" dy="208" grid="1" gridSize="10" guides="1" tooltips="1" connect="1" arrows="1" fold="1" page="1" pageScale="1" pageWidth="850" pageHeight="1100" math="0" shadow="0">
      <root>
        <mxCell id="0" />
        <mxCell id="1" parent="0" />
        <mxCell id="rjIUFAbZRqvPl1F5kIAQ-1" value="&lt;font style=&quot;font-size: 20px;&quot;&gt;INTERRUPT&lt;/font&gt;&lt;div style=&quot;font-size: 20px;&quot;&gt;&lt;font style=&quot;font-size: 20px;&quot;&gt;CONTROLLER&lt;/font&gt;&lt;/div&gt;" style="rounded=0;whiteSpace=wrap;html=1;" parent="1" vertex="1">
          <mxGeometry x="200" y="110" width="170" height="260" as="geometry" />
        </mxCell>
        <mxCell id="rjIUFAbZRqvPl1F5kIAQ-3" value="" style="endArrow=classic;html=1;rounded=0;" parent="1" edge="1">
          <mxGeometry width="50" height="50" relative="1" as="geometry">
            <mxPoint x="130" y="130" as="sourcePoint" />
            <mxPoint x="200" y="130" as="targetPoint" />
          </mxGeometry>
        </mxCell>
        <mxCell id="rjIUFAbZRqvPl1F5kIAQ-9" value="pclk" style="edgeLabel;html=1;align=center;verticalAlign=middle;resizable=0;points=[];" parent="rjIUFAbZRqvPl1F5kIAQ-3" vertex="1" connectable="0">
          <mxGeometry x="0.2" y="-1" relative="1" as="geometry">
            <mxPoint x="-2" y="-11" as="offset" />
          </mxGeometry>
        </mxCell>
        <mxCell id="rjIUFAbZRqvPl1F5kIAQ-4" value="" style="endArrow=classic;html=1;rounded=0;" parent="1" edge="1">
          <mxGeometry width="50" height="50" relative="1" as="geometry">
            <mxPoint x="130" y="160" as="sourcePoint" />
            <mxPoint x="200" y="160" as="targetPoint" />
          </mxGeometry>
        </mxCell>
        <mxCell id="rjIUFAbZRqvPl1F5kIAQ-10" value="preset_n" style="edgeLabel;html=1;align=center;verticalAlign=middle;resizable=0;points=[];" parent="rjIUFAbZRqvPl1F5kIAQ-4" vertex="1" connectable="0">
          <mxGeometry x="0.4" y="-4" relative="1" as="geometry">
            <mxPoint x="-9" y="-14" as="offset" />
          </mxGeometry>
        </mxCell>
        <mxCell id="rjIUFAbZRqvPl1F5kIAQ-5" value="" style="endArrow=classic;html=1;rounded=0;" parent="1" edge="1">
          <mxGeometry width="50" height="50" relative="1" as="geometry">
            <mxPoint x="130" y="190" as="sourcePoint" />
            <mxPoint x="200" y="190" as="targetPoint" />
          </mxGeometry>
        </mxCell>
        <mxCell id="rjIUFAbZRqvPl1F5kIAQ-11" value="psel" style="edgeLabel;html=1;align=center;verticalAlign=middle;resizable=0;points=[];" parent="rjIUFAbZRqvPl1F5kIAQ-5" vertex="1" connectable="0">
          <mxGeometry x="-0.2857" y="-1" relative="1" as="geometry">
            <mxPoint x="15" y="-11" as="offset" />
          </mxGeometry>
        </mxCell>
        <mxCell id="rjIUFAbZRqvPl1F5kIAQ-6" value="" style="endArrow=classic;html=1;rounded=0;" parent="1" edge="1">
          <mxGeometry width="50" height="50" relative="1" as="geometry">
            <mxPoint x="130" y="220" as="sourcePoint" />
            <mxPoint x="200" y="220" as="targetPoint" />
          </mxGeometry>
        </mxCell>
        <mxCell id="rjIUFAbZRqvPl1F5kIAQ-12" value="pwrite" style="edgeLabel;html=1;align=center;verticalAlign=middle;resizable=0;points=[];" parent="rjIUFAbZRqvPl1F5kIAQ-6" vertex="1" connectable="0">
          <mxGeometry y="-1" relative="1" as="geometry">
            <mxPoint y="-11" as="offset" />
          </mxGeometry>
        </mxCell>
        <mxCell id="rjIUFAbZRqvPl1F5kIAQ-7" value="" style="endArrow=classic;html=1;rounded=0;" parent="1" edge="1">
          <mxGeometry width="50" height="50" relative="1" as="geometry">
            <mxPoint x="130" y="250" as="sourcePoint" />
            <mxPoint x="200" y="250" as="targetPoint" />
          </mxGeometry>
        </mxCell>
        <mxCell id="rjIUFAbZRqvPl1F5kIAQ-13" value="penable" style="edgeLabel;html=1;align=center;verticalAlign=middle;resizable=0;points=[];" parent="rjIUFAbZRqvPl1F5kIAQ-7" vertex="1" connectable="0">
          <mxGeometry x="-0.0857" y="1" relative="1" as="geometry">
            <mxPoint y="-9" as="offset" />
          </mxGeometry>
        </mxCell>
        <mxCell id="rjIUFAbZRqvPl1F5kIAQ-8" value="" style="endArrow=classic;html=1;rounded=0;" parent="1" edge="1">
          <mxGeometry width="50" height="50" relative="1" as="geometry">
            <mxPoint x="130" y="280" as="sourcePoint" />
            <mxPoint x="200" y="280" as="targetPoint" />
          </mxGeometry>
        </mxCell>
        <mxCell id="rjIUFAbZRqvPl1F5kIAQ-14" value="paddr" style="edgeLabel;html=1;align=center;verticalAlign=middle;resizable=0;points=[];" parent="rjIUFAbZRqvPl1F5kIAQ-8" vertex="1" connectable="0">
          <mxGeometry x="0.1714" y="1" relative="1" as="geometry">
            <mxPoint x="-1" y="-9" as="offset" />
          </mxGeometry>
        </mxCell>
        <mxCell id="rjIUFAbZRqvPl1F5kIAQ-18" value="" style="endArrow=classic;html=1;rounded=0;" parent="1" edge="1">
          <mxGeometry width="50" height="50" relative="1" as="geometry">
            <mxPoint x="130" y="310" as="sourcePoint" />
            <mxPoint x="200" y="310" as="targetPoint" />
          </mxGeometry>
        </mxCell>
        <mxCell id="rjIUFAbZRqvPl1F5kIAQ-21" value="pwdata" style="edgeLabel;html=1;align=center;verticalAlign=middle;resizable=0;points=[];" parent="rjIUFAbZRqvPl1F5kIAQ-18" vertex="1" connectable="0">
          <mxGeometry x="0.1714" y="2" relative="1" as="geometry">
            <mxPoint x="-1" y="-8" as="offset" />
          </mxGeometry>
        </mxCell>
        <mxCell id="rjIUFAbZRqvPl1F5kIAQ-36" value="" style="endArrow=classic;html=1;rounded=0;" parent="1" edge="1">
          <mxGeometry width="50" height="50" relative="1" as="geometry">
            <mxPoint x="370" y="150" as="sourcePoint" />
            <mxPoint x="440" y="150" as="targetPoint" />
          </mxGeometry>
        </mxCell>
        <mxCell id="rjIUFAbZRqvPl1F5kIAQ-37" value="pready" style="edgeLabel;html=1;align=center;verticalAlign=middle;resizable=0;points=[];" parent="rjIUFAbZRqvPl1F5kIAQ-36" vertex="1" connectable="0">
          <mxGeometry x="0.2" y="-1" relative="1" as="geometry">
            <mxPoint x="-12" y="-11" as="offset" />
          </mxGeometry>
        </mxCell>
        <mxCell id="rjIUFAbZRqvPl1F5kIAQ-38" value="" style="endArrow=classic;html=1;rounded=0;" parent="1" edge="1">
          <mxGeometry width="50" height="50" relative="1" as="geometry">
            <mxPoint x="370" y="190" as="sourcePoint" />
            <mxPoint x="440" y="190" as="targetPoint" />
          </mxGeometry>
        </mxCell>
        <mxCell id="rjIUFAbZRqvPl1F5kIAQ-52" value="pslverr" style="edgeLabel;html=1;align=center;verticalAlign=middle;resizable=0;points=[];" parent="rjIUFAbZRqvPl1F5kIAQ-38" vertex="1" connectable="0">
          <mxGeometry x="0.2" y="1" relative="1" as="geometry">
            <mxPoint x="-12" y="-9" as="offset" />
          </mxGeometry>
        </mxCell>
        <mxCell id="rjIUFAbZRqvPl1F5kIAQ-40" value="" style="endArrow=classic;html=1;rounded=0;" parent="1" edge="1">
          <mxGeometry width="50" height="50" relative="1" as="geometry">
            <mxPoint x="370" y="230" as="sourcePoint" />
            <mxPoint x="440" y="230" as="targetPoint" />
          </mxGeometry>
        </mxCell>
        <mxCell id="rjIUFAbZRqvPl1F5kIAQ-41" value="paddr" style="edgeLabel;html=1;align=center;verticalAlign=middle;resizable=0;points=[];" parent="rjIUFAbZRqvPl1F5kIAQ-40" vertex="1" connectable="0">
          <mxGeometry x="-0.2857" y="-1" relative="1" as="geometry">
            <mxPoint x="5" y="-11" as="offset" />
          </mxGeometry>
        </mxCell>
        <mxCell id="rjIUFAbZRqvPl1F5kIAQ-42" value="" style="endArrow=classic;html=1;rounded=0;" parent="1" edge="1">
          <mxGeometry width="50" height="50" relative="1" as="geometry">
            <mxPoint x="370" y="280" as="sourcePoint" />
            <mxPoint x="440" y="280" as="targetPoint" />
          </mxGeometry>
        </mxCell>
        <mxCell id="rjIUFAbZRqvPl1F5kIAQ-43" value="interrupt_event" style="edgeLabel;html=1;align=center;verticalAlign=middle;resizable=0;points=[];" parent="rjIUFAbZRqvPl1F5kIAQ-42" vertex="1" connectable="0">
          <mxGeometry y="-1" relative="1" as="geometry">
            <mxPoint y="-11" as="offset" />
          </mxGeometry>
        </mxCell>
        <mxCell id="rjIUFAbZRqvPl1F5kIAQ-44" value="" style="endArrow=classic;html=1;rounded=0;" parent="1" edge="1">
          <mxGeometry width="50" height="50" relative="1" as="geometry">
            <mxPoint x="370" y="330" as="sourcePoint" />
            <mxPoint x="440" y="330" as="targetPoint" />
          </mxGeometry>
        </mxCell>
        <mxCell id="rjIUFAbZRqvPl1F5kIAQ-45" value="vector_number" style="edgeLabel;html=1;align=center;verticalAlign=middle;resizable=0;points=[];" parent="rjIUFAbZRqvPl1F5kIAQ-44" vertex="1" connectable="0">
          <mxGeometry x="-0.0857" y="1" relative="1" as="geometry">
            <mxPoint y="-9" as="offset" />
          </mxGeometry>
        </mxCell>
        <mxCell id="rjIUFAbZRqvPl1F5kIAQ-48" value="" style="endArrow=classic;html=1;rounded=0;" parent="1" edge="1">
          <mxGeometry width="50" height="50" relative="1" as="geometry">
            <mxPoint x="130" y="340" as="sourcePoint" />
            <mxPoint x="200" y="340" as="targetPoint" />
          </mxGeometry>
        </mxCell>
        <mxCell id="rjIUFAbZRqvPl1F5kIAQ-49" value="I_flag" style="edgeLabel;html=1;align=center;verticalAlign=middle;resizable=0;points=[];" parent="rjIUFAbZRqvPl1F5kIAQ-48" vertex="1" connectable="0">
          <mxGeometry x="0.1714" y="2" relative="1" as="geometry">
            <mxPoint x="-1" y="-8" as="offset" />
          </mxGeometry>
        </mxCell>
        <mxCell id="rjIUFAbZRqvPl1F5kIAQ-53" value="RISC_V" style="rounded=0;whiteSpace=wrap;html=1;" parent="1" vertex="1">
          <mxGeometry x="580" y="120" width="120" height="180" as="geometry" />
        </mxCell>
        <mxCell id="rjIUFAbZRqvPl1F5kIAQ-71" value="" style="endArrow=classic;html=1;rounded=0;" parent="1" edge="1">
          <mxGeometry width="50" height="50" relative="1" as="geometry">
            <mxPoint x="700" y="140" as="sourcePoint" />
            <mxPoint x="770" y="140" as="targetPoint" />
          </mxGeometry>
        </mxCell>
        <mxCell id="rjIUFAbZRqvPl1F5kIAQ-72" value="I_flag" style="edgeLabel;html=1;align=center;verticalAlign=middle;resizable=0;points=[];" parent="rjIUFAbZRqvPl1F5kIAQ-71" vertex="1" connectable="0">
          <mxGeometry x="0.1714" y="2" relative="1" as="geometry">
            <mxPoint x="-1" y="-8" as="offset" />
          </mxGeometry>
        </mxCell>
        <mxCell id="rjIUFAbZRqvPl1F5kIAQ-74" value="" style="endArrow=classic;html=1;rounded=0;" parent="1" edge="1">
          <mxGeometry width="50" height="50" relative="1" as="geometry">
            <mxPoint x="510" y="140" as="sourcePoint" />
            <mxPoint x="580" y="140" as="targetPoint" />
          </mxGeometry>
        </mxCell>
        <mxCell id="rjIUFAbZRqvPl1F5kIAQ-75" value="interrupt_event" style="edgeLabel;html=1;align=center;verticalAlign=middle;resizable=0;points=[];" parent="rjIUFAbZRqvPl1F5kIAQ-74" vertex="1" connectable="0">
          <mxGeometry y="-1" relative="1" as="geometry">
            <mxPoint y="-11" as="offset" />
          </mxGeometry>
        </mxCell>
        <mxCell id="rjIUFAbZRqvPl1F5kIAQ-76" value="" style="endArrow=classic;html=1;rounded=0;" parent="1" edge="1">
          <mxGeometry width="50" height="50" relative="1" as="geometry">
            <mxPoint x="510" y="170" as="sourcePoint" />
            <mxPoint x="580" y="170" as="targetPoint" />
          </mxGeometry>
        </mxCell>
        <mxCell id="rjIUFAbZRqvPl1F5kIAQ-77" value="vector_number" style="edgeLabel;html=1;align=center;verticalAlign=middle;resizable=0;points=[];" parent="rjIUFAbZRqvPl1F5kIAQ-76" vertex="1" connectable="0">
          <mxGeometry x="-0.0857" y="1" relative="1" as="geometry">
            <mxPoint y="-9" as="offset" />
          </mxGeometry>
        </mxCell>
        <mxCell id="FFo2ZRcjo2irA0ZrbvkW-27" value="" style="group" parent="1" vertex="1" connectable="0">
          <mxGeometry y="400" width="660" height="230" as="geometry" />
        </mxCell>
        <mxCell id="FFo2ZRcjo2irA0ZrbvkW-5" style="edgeStyle=orthogonalEdgeStyle;rounded=0;orthogonalLoop=1;jettySize=auto;html=1;exitX=1;exitY=0.5;exitDx=0;exitDy=0;" parent="FFo2ZRcjo2irA0ZrbvkW-27" source="FFo2ZRcjo2irA0ZrbvkW-1" target="FFo2ZRcjo2irA0ZrbvkW-2" edge="1">
          <mxGeometry relative="1" as="geometry" />
        </mxCell>
        <mxCell id="FFo2ZRcjo2irA0ZrbvkW-1" value="IRQn&lt;div&gt;input&lt;/div&gt;" style="whiteSpace=wrap;html=1;aspect=fixed;" parent="FFo2ZRcjo2irA0ZrbvkW-27" vertex="1">
          <mxGeometry y="100" width="80" height="80" as="geometry" />
        </mxCell>
        <mxCell id="FFo2ZRcjo2irA0ZrbvkW-3" style="edgeStyle=orthogonalEdgeStyle;rounded=0;orthogonalLoop=1;jettySize=auto;html=1;exitX=0.5;exitY=0;exitDx=0;exitDy=0;entryX=0.5;entryY=0;entryDx=0;entryDy=0;" parent="FFo2ZRcjo2irA0ZrbvkW-27" target="FFo2ZRcjo2irA0ZrbvkW-2" edge="1">
          <mxGeometry relative="1" as="geometry">
            <mxPoint x="220.3529411764706" y="10" as="sourcePoint" />
          </mxGeometry>
        </mxCell>
        <mxCell id="FFo2ZRcjo2irA0ZrbvkW-4" value="ISCRA, ISCRB, ISCRC, ISCRD" style="edgeLabel;html=1;align=center;verticalAlign=middle;resizable=0;points=[];" parent="FFo2ZRcjo2irA0ZrbvkW-3" vertex="1" connectable="0">
          <mxGeometry x="-0.8609" y="2" relative="1" as="geometry">
            <mxPoint as="offset" />
          </mxGeometry>
        </mxCell>
        <mxCell id="FFo2ZRcjo2irA0ZrbvkW-2" value="Edge/ level detection circuit" style="whiteSpace=wrap;html=1;aspect=fixed;" parent="FFo2ZRcjo2irA0ZrbvkW-27" vertex="1">
          <mxGeometry x="180" y="100" width="80" height="80" as="geometry" />
        </mxCell>
        <mxCell id="FFo2ZRcjo2irA0ZrbvkW-11" value="" style="verticalLabelPosition=bottom;verticalAlign=top;html=1;shape=mxgraph.basic.rect;fillColor2=none;strokeWidth=1;size=20;indent=5;strokeColor=default;align=center;fontFamily=Helvetica;fontSize=12;fontColor=default;fillColor=default;" parent="FFo2ZRcjo2irA0ZrbvkW-27" vertex="1">
          <mxGeometry x="335" y="110" width="80" height="80" as="geometry" />
        </mxCell>
        <mxCell id="FFo2ZRcjo2irA0ZrbvkW-12" style="edgeStyle=orthogonalEdgeStyle;rounded=0;orthogonalLoop=1;jettySize=auto;html=1;exitX=1;exitY=0.5;exitDx=0;exitDy=0;entryX=-0.008;entryY=0.377;entryDx=0;entryDy=0;entryPerimeter=0;fontFamily=Helvetica;fontSize=12;fontColor=default;" parent="FFo2ZRcjo2irA0ZrbvkW-27" source="FFo2ZRcjo2irA0ZrbvkW-2" target="FFo2ZRcjo2irA0ZrbvkW-11" edge="1">
          <mxGeometry relative="1" as="geometry" />
        </mxCell>
        <mxCell id="FFo2ZRcjo2irA0ZrbvkW-13" value="signal_det" style="edgeLabel;html=1;align=center;verticalAlign=middle;resizable=0;points=[];strokeColor=default;strokeWidth=1;fontFamily=Helvetica;fontSize=12;fontColor=default;fillColor=default;" parent="FFo2ZRcjo2irA0ZrbvkW-12" vertex="1" connectable="0">
          <mxGeometry x="-0.0774" y="-2" relative="1" as="geometry">
            <mxPoint x="1" y="-12" as="offset" />
          </mxGeometry>
        </mxCell>
        <mxCell id="FFo2ZRcjo2irA0ZrbvkW-17" value="" style="endArrow=classic;html=1;rounded=0;fontFamily=Helvetica;fontSize=12;fontColor=default;" parent="FFo2ZRcjo2irA0ZrbvkW-27" edge="1">
          <mxGeometry width="50" height="50" relative="1" as="geometry">
            <mxPoint x="285" y="230" as="sourcePoint" />
            <mxPoint x="335" y="180" as="targetPoint" />
            <Array as="points">
              <mxPoint x="285" y="180" />
            </Array>
          </mxGeometry>
        </mxCell>
        <mxCell id="FFo2ZRcjo2irA0ZrbvkW-18" value="preset_n" style="edgeLabel;html=1;align=center;verticalAlign=middle;resizable=0;points=[];strokeColor=default;strokeWidth=1;fontFamily=Helvetica;fontSize=12;fontColor=default;fillColor=default;" parent="FFo2ZRcjo2irA0ZrbvkW-17" vertex="1" connectable="0">
          <mxGeometry x="-0.6667" y="-1" relative="1" as="geometry">
            <mxPoint as="offset" />
          </mxGeometry>
        </mxCell>
        <mxCell id="FFo2ZRcjo2irA0ZrbvkW-20" value="" style="shape=or;whiteSpace=wrap;html=1;strokeColor=default;strokeWidth=1;align=center;verticalAlign=top;fontFamily=Helvetica;fontSize=12;fontColor=default;fillColor=default;" parent="FFo2ZRcjo2irA0ZrbvkW-27" vertex="1">
          <mxGeometry x="530" y="60" width="60" height="80" as="geometry" />
        </mxCell>
        <mxCell id="FFo2ZRcjo2irA0ZrbvkW-21" value="" style="endArrow=classic;html=1;rounded=0;fontFamily=Helvetica;fontSize=12;fontColor=default;exitX=1.025;exitY=0.198;exitDx=0;exitDy=0;exitPerimeter=0;" parent="FFo2ZRcjo2irA0ZrbvkW-27" source="FFo2ZRcjo2irA0ZrbvkW-11" edge="1">
          <mxGeometry width="50" height="50" relative="1" as="geometry">
            <mxPoint x="480" y="175" as="sourcePoint" />
            <mxPoint x="530" y="125" as="targetPoint" />
          </mxGeometry>
        </mxCell>
        <mxCell id="FFo2ZRcjo2irA0ZrbvkW-22" value="intr_hit" style="edgeLabel;html=1;align=center;verticalAlign=middle;resizable=0;points=[];strokeColor=default;strokeWidth=1;fontFamily=Helvetica;fontSize=12;fontColor=default;fillColor=default;" parent="FFo2ZRcjo2irA0ZrbvkW-21" vertex="1" connectable="0">
          <mxGeometry x="-0.1151" relative="1" as="geometry">
            <mxPoint as="offset" />
          </mxGeometry>
        </mxCell>
        <mxCell id="FFo2ZRcjo2irA0ZrbvkW-23" value="" style="endArrow=classic;html=1;rounded=0;fontFamily=Helvetica;fontSize=12;fontColor=default;" parent="FFo2ZRcjo2irA0ZrbvkW-27" edge="1">
          <mxGeometry width="50" height="50" relative="1" as="geometry">
            <mxPoint x="440" as="sourcePoint" />
            <mxPoint x="530" y="75" as="targetPoint" />
            <Array as="points">
              <mxPoint x="440" y="75" />
            </Array>
          </mxGeometry>
        </mxCell>
        <mxCell id="FFo2ZRcjo2irA0ZrbvkW-24" value="IER" style="edgeLabel;html=1;align=center;verticalAlign=middle;resizable=0;points=[];strokeColor=default;strokeWidth=1;fontFamily=Helvetica;fontSize=12;fontColor=default;fillColor=default;" parent="FFo2ZRcjo2irA0ZrbvkW-23" vertex="1" connectable="0">
          <mxGeometry x="-0.8586" relative="1" as="geometry">
            <mxPoint as="offset" />
          </mxGeometry>
        </mxCell>
        <mxCell id="FFo2ZRcjo2irA0ZrbvkW-25" value="" style="endArrow=classic;html=1;rounded=0;fontFamily=Helvetica;fontSize=12;fontColor=default;" parent="FFo2ZRcjo2irA0ZrbvkW-27" edge="1">
          <mxGeometry width="50" height="50" relative="1" as="geometry">
            <mxPoint x="590" y="100" as="sourcePoint" />
            <mxPoint x="660" y="100" as="targetPoint" />
          </mxGeometry>
        </mxCell>
        <mxCell id="FFo2ZRcjo2irA0ZrbvkW-26" value="IRQn_req" style="edgeLabel;html=1;align=center;verticalAlign=middle;resizable=0;points=[];strokeColor=default;strokeWidth=1;fontFamily=Helvetica;fontSize=12;fontColor=default;fillColor=default;" parent="FFo2ZRcjo2irA0ZrbvkW-25" vertex="1" connectable="0">
          <mxGeometry x="0.2714" y="-2" relative="1" as="geometry">
            <mxPoint y="-12" as="offset" />
          </mxGeometry>
        </mxCell>
        <mxCell id="FFo2ZRcjo2irA0ZrbvkW-37" style="edgeStyle=orthogonalEdgeStyle;rounded=0;orthogonalLoop=1;jettySize=auto;html=1;exitX=0.75;exitY=0;exitDx=0;exitDy=0;fontFamily=Helvetica;fontSize=12;fontColor=default;entryX=0.75;entryY=0;entryDx=0;entryDy=0;" parent="1" target="FFo2ZRcjo2irA0ZrbvkW-30" edge="1">
          <mxGeometry relative="1" as="geometry">
            <mxPoint x="-680" y="196" as="sourcePoint" />
            <Array as="points">
              <mxPoint x="-624" y="196" />
            </Array>
          </mxGeometry>
        </mxCell>
        <mxCell id="FFo2ZRcjo2irA0ZrbvkW-46" value="IRQ0" style="edgeLabel;html=1;align=center;verticalAlign=middle;resizable=0;points=[];strokeColor=default;strokeWidth=1;fontFamily=Helvetica;fontSize=12;fontColor=default;fillColor=default;" parent="FFo2ZRcjo2irA0ZrbvkW-37" vertex="1" connectable="0">
          <mxGeometry x="-0.4255" y="2" relative="1" as="geometry">
            <mxPoint as="offset" />
          </mxGeometry>
        </mxCell>
        <mxCell id="FFo2ZRcjo2irA0ZrbvkW-54" style="edgeStyle=orthogonalEdgeStyle;rounded=0;orthogonalLoop=1;jettySize=auto;html=1;exitX=0.5;exitY=1;exitDx=0;exitDy=0;entryX=0.75;entryY=0;entryDx=0;entryDy=0;fontFamily=Helvetica;fontSize=12;fontColor=default;" parent="1" source="FFo2ZRcjo2irA0ZrbvkW-30" target="FFo2ZRcjo2irA0ZrbvkW-34" edge="1">
          <mxGeometry relative="1" as="geometry" />
        </mxCell>
        <mxCell id="FFo2ZRcjo2irA0ZrbvkW-62" style="edgeStyle=orthogonalEdgeStyle;rounded=0;orthogonalLoop=1;jettySize=auto;html=1;exitX=1;exitY=0.5;exitDx=0;exitDy=0;fontFamily=Helvetica;fontSize=12;fontColor=default;entryX=1;entryY=0.5;entryDx=0;entryDy=0;" parent="1" target="FFo2ZRcjo2irA0ZrbvkW-30" edge="1">
          <mxGeometry relative="1" as="geometry">
            <mxPoint x="-539.5999999999999" y="100" as="sourcePoint" />
          </mxGeometry>
        </mxCell>
        <mxCell id="FFo2ZRcjo2irA0ZrbvkW-69" value="IPRA[2:0]&amp;gt;IPRA[6:4]" style="edgeLabel;html=1;align=center;verticalAlign=middle;resizable=0;points=[];strokeColor=default;strokeWidth=1;fontFamily=Helvetica;fontSize=12;fontColor=default;fillColor=default;" parent="FFo2ZRcjo2irA0ZrbvkW-62" vertex="1" connectable="0">
          <mxGeometry x="-0.5431" y="1" relative="1" as="geometry">
            <mxPoint as="offset" />
          </mxGeometry>
        </mxCell>
        <mxCell id="FFo2ZRcjo2irA0ZrbvkW-30" value="" style="verticalLabelPosition=middle;verticalAlign=middle;html=1;shape=trapezoid;perimeter=trapezoidPerimeter;whiteSpace=wrap;size=0.23;arcSize=10;flipV=1;labelPosition=center;align=center;strokeColor=default;strokeWidth=1;fontFamily=Helvetica;fontSize=12;fontColor=default;fillColor=default;rotation=-90;" parent="1" vertex="1">
          <mxGeometry x="-590" y="190" width="100" height="60" as="geometry" />
        </mxCell>
        <mxCell id="FFo2ZRcjo2irA0ZrbvkW-58" style="edgeStyle=orthogonalEdgeStyle;rounded=0;orthogonalLoop=1;jettySize=auto;html=1;exitX=0.5;exitY=1;exitDx=0;exitDy=0;entryX=0.25;entryY=0;entryDx=0;entryDy=0;fontFamily=Helvetica;fontSize=12;fontColor=default;" parent="1" source="FFo2ZRcjo2irA0ZrbvkW-31" target="FFo2ZRcjo2irA0ZrbvkW-35" edge="1">
          <mxGeometry relative="1" as="geometry" />
        </mxCell>
        <mxCell id="FFo2ZRcjo2irA0ZrbvkW-65" style="edgeStyle=orthogonalEdgeStyle;rounded=0;orthogonalLoop=1;jettySize=auto;html=1;exitX=1;exitY=0.5;exitDx=0;exitDy=0;fontFamily=Helvetica;fontSize=12;fontColor=default;entryX=1;entryY=0.5;entryDx=0;entryDy=0;" parent="1" target="FFo2ZRcjo2irA0ZrbvkW-31" edge="1">
          <mxGeometry relative="1" as="geometry">
            <mxPoint x="-539.5999999999999" y="600" as="sourcePoint" />
          </mxGeometry>
        </mxCell>
        <mxCell id="FFo2ZRcjo2irA0ZrbvkW-72" value="IPRD[2:0]&amp;gt;IPRD[6:4]" style="edgeLabel;html=1;align=center;verticalAlign=middle;resizable=0;points=[];strokeColor=default;strokeWidth=1;fontFamily=Helvetica;fontSize=12;fontColor=default;fillColor=default;" parent="FFo2ZRcjo2irA0ZrbvkW-65" vertex="1" connectable="0">
          <mxGeometry x="-0.4337" y="1" relative="1" as="geometry">
            <mxPoint as="offset" />
          </mxGeometry>
        </mxCell>
        <mxCell id="FFo2ZRcjo2irA0ZrbvkW-31" value="" style="verticalLabelPosition=middle;verticalAlign=middle;html=1;shape=trapezoid;perimeter=trapezoidPerimeter;whiteSpace=wrap;size=0.23;arcSize=10;flipV=1;labelPosition=center;align=center;strokeColor=default;strokeWidth=1;fontFamily=Helvetica;fontSize=12;fontColor=default;fillColor=default;rotation=-90;" parent="1" vertex="1">
          <mxGeometry x="-590" y="660" width="100" height="60" as="geometry" />
        </mxCell>
        <mxCell id="FFo2ZRcjo2irA0ZrbvkW-63" style="edgeStyle=orthogonalEdgeStyle;rounded=0;orthogonalLoop=1;jettySize=auto;html=1;exitX=1;exitY=0.5;exitDx=0;exitDy=0;fontFamily=Helvetica;fontSize=12;fontColor=default;entryX=1;entryY=0.5;entryDx=0;entryDy=0;" parent="1" target="FFo2ZRcjo2irA0ZrbvkW-32" edge="1">
          <mxGeometry relative="1" as="geometry">
            <mxPoint x="-539.5999999999999" y="280" as="sourcePoint" />
          </mxGeometry>
        </mxCell>
        <mxCell id="FFo2ZRcjo2irA0ZrbvkW-70" value="IPRB[2:0]&amp;gt;IPRB[6:4]" style="edgeLabel;html=1;align=center;verticalAlign=middle;resizable=0;points=[];strokeColor=default;strokeWidth=1;fontFamily=Helvetica;fontSize=12;fontColor=default;fillColor=default;" parent="FFo2ZRcjo2irA0ZrbvkW-63" vertex="1" connectable="0">
          <mxGeometry x="-0.423" relative="1" as="geometry">
            <mxPoint as="offset" />
          </mxGeometry>
        </mxCell>
        <mxCell id="FFo2ZRcjo2irA0ZrbvkW-32" value="" style="verticalLabelPosition=middle;verticalAlign=middle;html=1;shape=trapezoid;perimeter=trapezoidPerimeter;whiteSpace=wrap;size=0.23;arcSize=10;flipV=1;labelPosition=center;align=center;strokeColor=default;strokeWidth=1;fontFamily=Helvetica;fontSize=12;fontColor=default;fillColor=default;rotation=-90;" parent="1" vertex="1">
          <mxGeometry x="-590" y="350" width="100" height="60" as="geometry" />
        </mxCell>
        <mxCell id="FFo2ZRcjo2irA0ZrbvkW-64" style="edgeStyle=orthogonalEdgeStyle;rounded=0;orthogonalLoop=1;jettySize=auto;html=1;exitX=1;exitY=0.5;exitDx=0;exitDy=0;fontFamily=Helvetica;fontSize=12;fontColor=default;entryX=1;entryY=0.5;entryDx=0;entryDy=0;" parent="1" target="FFo2ZRcjo2irA0ZrbvkW-33" edge="1">
          <mxGeometry relative="1" as="geometry">
            <mxPoint x="-539.5999999999999" y="440" as="sourcePoint" />
          </mxGeometry>
        </mxCell>
        <mxCell id="FFo2ZRcjo2irA0ZrbvkW-71" value="IPRC[2:0]&amp;gt;IPRC[6:4]" style="edgeLabel;html=1;align=center;verticalAlign=middle;resizable=0;points=[];strokeColor=default;strokeWidth=1;fontFamily=Helvetica;fontSize=12;fontColor=default;fillColor=default;" parent="FFo2ZRcjo2irA0ZrbvkW-64" vertex="1" connectable="0">
          <mxGeometry x="-0.3123" relative="1" as="geometry">
            <mxPoint as="offset" />
          </mxGeometry>
        </mxCell>
        <mxCell id="FFo2ZRcjo2irA0ZrbvkW-33" value="" style="verticalLabelPosition=middle;verticalAlign=middle;html=1;shape=trapezoid;perimeter=trapezoidPerimeter;whiteSpace=wrap;size=0.23;arcSize=10;flipV=1;labelPosition=center;align=center;strokeColor=default;strokeWidth=1;fontFamily=Helvetica;fontSize=12;fontColor=default;fillColor=default;rotation=-90;" parent="1" vertex="1">
          <mxGeometry x="-590" y="500" width="100" height="60" as="geometry" />
        </mxCell>
        <mxCell id="FFo2ZRcjo2irA0ZrbvkW-59" style="edgeStyle=orthogonalEdgeStyle;rounded=0;orthogonalLoop=1;jettySize=auto;html=1;exitX=0.5;exitY=1;exitDx=0;exitDy=0;entryX=0.75;entryY=0;entryDx=0;entryDy=0;fontFamily=Helvetica;fontSize=12;fontColor=default;" parent="1" source="FFo2ZRcjo2irA0ZrbvkW-34" target="FFo2ZRcjo2irA0ZrbvkW-36" edge="1">
          <mxGeometry relative="1" as="geometry" />
        </mxCell>
        <mxCell id="FFo2ZRcjo2irA0ZrbvkW-66" style="edgeStyle=orthogonalEdgeStyle;rounded=0;orthogonalLoop=1;jettySize=auto;html=1;exitX=1;exitY=0.5;exitDx=0;exitDy=0;fontFamily=Helvetica;fontSize=12;fontColor=default;entryX=1;entryY=0.5;entryDx=0;entryDy=0;" parent="1" target="FFo2ZRcjo2irA0ZrbvkW-34" edge="1">
          <mxGeometry relative="1" as="geometry">
            <mxPoint x="-374.79999999999995" y="280" as="sourcePoint" />
          </mxGeometry>
        </mxCell>
        <mxCell id="FFo2ZRcjo2irA0ZrbvkW-115" value="(IPRA[2:0]&amp;gt;IPRA[6:4])&amp;gt;(IPRB[2:0]&amp;gt;IPRB[6:4])" style="edgeLabel;html=1;align=center;verticalAlign=middle;resizable=0;points=[];strokeColor=default;strokeWidth=1;fontFamily=Helvetica;fontSize=12;fontColor=default;fillColor=default;" parent="FFo2ZRcjo2irA0ZrbvkW-66" vertex="1" connectable="0">
          <mxGeometry x="-0.7565" y="-1" relative="1" as="geometry">
            <mxPoint x="56" y="-17" as="offset" />
          </mxGeometry>
        </mxCell>
        <mxCell id="FFo2ZRcjo2irA0ZrbvkW-34" value="" style="verticalLabelPosition=middle;verticalAlign=middle;html=1;shape=trapezoid;perimeter=trapezoidPerimeter;whiteSpace=wrap;size=0.23;arcSize=10;flipV=1;labelPosition=center;align=center;strokeColor=default;strokeWidth=1;fontFamily=Helvetica;fontSize=12;fontColor=default;fillColor=default;rotation=-90;" parent="1" vertex="1">
          <mxGeometry x="-425" y="340" width="100" height="60" as="geometry" />
        </mxCell>
        <mxCell id="FFo2ZRcjo2irA0ZrbvkW-60" style="edgeStyle=orthogonalEdgeStyle;rounded=0;orthogonalLoop=1;jettySize=auto;html=1;exitX=0.5;exitY=1;exitDx=0;exitDy=0;entryX=0.5;entryY=0;entryDx=0;entryDy=0;fontFamily=Helvetica;fontSize=12;fontColor=default;" parent="1" source="FFo2ZRcjo2irA0ZrbvkW-35" target="FFo2ZRcjo2irA0ZrbvkW-36" edge="1">
          <mxGeometry relative="1" as="geometry" />
        </mxCell>
        <mxCell id="FFo2ZRcjo2irA0ZrbvkW-67" style="edgeStyle=orthogonalEdgeStyle;rounded=0;orthogonalLoop=1;jettySize=auto;html=1;exitX=0;exitY=0.5;exitDx=0;exitDy=0;fontFamily=Helvetica;fontSize=12;fontColor=default;entryX=0;entryY=0.5;entryDx=0;entryDy=0;" parent="1" target="FFo2ZRcjo2irA0ZrbvkW-35" edge="1">
          <mxGeometry relative="1" as="geometry">
            <mxPoint x="-374.79999999999995" y="620" as="sourcePoint" />
          </mxGeometry>
        </mxCell>
        <mxCell id="FFo2ZRcjo2irA0ZrbvkW-35" value="" style="verticalLabelPosition=middle;verticalAlign=middle;html=1;shape=trapezoid;perimeter=trapezoidPerimeter;whiteSpace=wrap;size=0.23;arcSize=10;flipV=1;labelPosition=center;align=center;strokeColor=default;strokeWidth=1;fontFamily=Helvetica;fontSize=12;fontColor=default;fillColor=default;rotation=-90;" parent="1" vertex="1">
          <mxGeometry x="-425" y="490" width="100" height="60" as="geometry" />
        </mxCell>
        <mxCell id="FFo2ZRcjo2irA0ZrbvkW-61" style="edgeStyle=orthogonalEdgeStyle;rounded=0;orthogonalLoop=1;jettySize=auto;html=1;exitX=0.5;exitY=1;exitDx=0;exitDy=0;fontFamily=Helvetica;fontSize=12;fontColor=default;" parent="1" source="FFo2ZRcjo2irA0ZrbvkW-36" edge="1">
          <mxGeometry relative="1" as="geometry">
            <mxPoint x="-140" y="450" as="targetPoint" />
          </mxGeometry>
        </mxCell>
        <mxCell id="FFo2ZRcjo2irA0ZrbvkW-68" style="edgeStyle=orthogonalEdgeStyle;rounded=0;orthogonalLoop=1;jettySize=auto;html=1;exitX=1;exitY=0.5;exitDx=0;exitDy=0;fontFamily=Helvetica;fontSize=12;fontColor=default;entryX=1;entryY=0.5;entryDx=0;entryDy=0;" parent="1" target="FFo2ZRcjo2irA0ZrbvkW-36" edge="1">
          <mxGeometry relative="1" as="geometry">
            <mxPoint x="-239.5999999999999" y="350" as="sourcePoint" />
          </mxGeometry>
        </mxCell>
        <mxCell id="FFo2ZRcjo2irA0ZrbvkW-118" value="MOST PRIORITIES" style="edgeLabel;html=1;align=center;verticalAlign=middle;resizable=0;points=[];strokeColor=default;strokeWidth=1;fontFamily=Helvetica;fontSize=12;fontColor=default;fillColor=default;" parent="FFo2ZRcjo2irA0ZrbvkW-68" vertex="1" connectable="0">
          <mxGeometry x="-0.5659" relative="1" as="geometry">
            <mxPoint as="offset" />
          </mxGeometry>
        </mxCell>
        <mxCell id="FFo2ZRcjo2irA0ZrbvkW-36" value="" style="verticalLabelPosition=middle;verticalAlign=middle;html=1;shape=trapezoid;perimeter=trapezoidPerimeter;whiteSpace=wrap;size=0.23;arcSize=10;flipV=1;labelPosition=center;align=center;strokeColor=default;strokeWidth=1;fontFamily=Helvetica;fontSize=12;fontColor=default;fillColor=default;rotation=-90;" parent="1" vertex="1">
          <mxGeometry x="-290" y="420" width="100" height="60" as="geometry" />
        </mxCell>
        <mxCell id="FFo2ZRcjo2irA0ZrbvkW-38" style="edgeStyle=orthogonalEdgeStyle;rounded=0;orthogonalLoop=1;jettySize=auto;html=1;exitX=0.75;exitY=0;exitDx=0;exitDy=0;fontFamily=Helvetica;fontSize=12;fontColor=default;entryX=0.75;entryY=0;entryDx=0;entryDy=0;" parent="1" edge="1">
          <mxGeometry relative="1" as="geometry">
            <mxPoint x="-570" y="230" as="targetPoint" />
            <mxPoint x="-680" y="231" as="sourcePoint" />
          </mxGeometry>
        </mxCell>
        <mxCell id="FFo2ZRcjo2irA0ZrbvkW-47" value="IRQ1" style="edgeLabel;html=1;align=center;verticalAlign=middle;resizable=0;points=[];strokeColor=default;strokeWidth=1;fontFamily=Helvetica;fontSize=12;fontColor=default;fillColor=default;" parent="FFo2ZRcjo2irA0ZrbvkW-38" vertex="1" connectable="0">
          <mxGeometry x="-0.5897" y="2" relative="1" as="geometry">
            <mxPoint as="offset" />
          </mxGeometry>
        </mxCell>
        <mxCell id="FFo2ZRcjo2irA0ZrbvkW-40" style="edgeStyle=orthogonalEdgeStyle;rounded=0;orthogonalLoop=1;jettySize=auto;html=1;exitX=0.75;exitY=0;exitDx=0;exitDy=0;fontFamily=Helvetica;fontSize=12;fontColor=default;entryX=0.75;entryY=0;entryDx=0;entryDy=0;" parent="1" edge="1">
          <mxGeometry relative="1" as="geometry">
            <mxPoint x="-570" y="350" as="targetPoint" />
            <mxPoint x="-680" y="351" as="sourcePoint" />
            <Array as="points">
              <mxPoint x="-624" y="351" />
            </Array>
          </mxGeometry>
        </mxCell>
        <mxCell id="FFo2ZRcjo2irA0ZrbvkW-48" value="IRQ2" style="edgeLabel;html=1;align=center;verticalAlign=middle;resizable=0;points=[];strokeColor=default;strokeWidth=1;fontFamily=Helvetica;fontSize=12;fontColor=default;fillColor=default;" parent="FFo2ZRcjo2irA0ZrbvkW-40" vertex="1" connectable="0">
          <mxGeometry x="-0.5028" y="-4" relative="1" as="geometry">
            <mxPoint as="offset" />
          </mxGeometry>
        </mxCell>
        <mxCell id="FFo2ZRcjo2irA0ZrbvkW-41" style="edgeStyle=orthogonalEdgeStyle;rounded=0;orthogonalLoop=1;jettySize=auto;html=1;exitX=0.75;exitY=0;exitDx=0;exitDy=0;fontFamily=Helvetica;fontSize=12;fontColor=default;entryX=0.75;entryY=0;entryDx=0;entryDy=0;" parent="1" edge="1">
          <mxGeometry relative="1" as="geometry">
            <mxPoint x="-570" y="400" as="targetPoint" />
            <mxPoint x="-680" y="401" as="sourcePoint" />
            <Array as="points">
              <mxPoint x="-624" y="401" />
            </Array>
          </mxGeometry>
        </mxCell>
        <mxCell id="FFo2ZRcjo2irA0ZrbvkW-49" value="IRQ3" style="edgeLabel;html=1;align=center;verticalAlign=middle;resizable=0;points=[];strokeColor=default;strokeWidth=1;fontFamily=Helvetica;fontSize=12;fontColor=default;fillColor=default;" parent="FFo2ZRcjo2irA0ZrbvkW-41" vertex="1" connectable="0">
          <mxGeometry x="-0.5317" y="2" relative="1" as="geometry">
            <mxPoint as="offset" />
          </mxGeometry>
        </mxCell>
        <mxCell id="FFo2ZRcjo2irA0ZrbvkW-42" style="edgeStyle=orthogonalEdgeStyle;rounded=0;orthogonalLoop=1;jettySize=auto;html=1;exitX=0.75;exitY=0;exitDx=0;exitDy=0;fontFamily=Helvetica;fontSize=12;fontColor=default;entryX=0.75;entryY=0;entryDx=0;entryDy=0;" parent="1" edge="1">
          <mxGeometry relative="1" as="geometry">
            <mxPoint x="-570" y="500" as="targetPoint" />
            <mxPoint x="-680" y="501" as="sourcePoint" />
            <Array as="points">
              <mxPoint x="-624" y="501" />
            </Array>
          </mxGeometry>
        </mxCell>
        <mxCell id="FFo2ZRcjo2irA0ZrbvkW-50" value="IRQ4" style="edgeLabel;html=1;align=center;verticalAlign=middle;resizable=0;points=[];strokeColor=default;strokeWidth=1;fontFamily=Helvetica;fontSize=12;fontColor=default;fillColor=default;" parent="FFo2ZRcjo2irA0ZrbvkW-42" vertex="1" connectable="0">
          <mxGeometry x="-0.5173" y="-2" relative="1" as="geometry">
            <mxPoint as="offset" />
          </mxGeometry>
        </mxCell>
        <mxCell id="FFo2ZRcjo2irA0ZrbvkW-43" style="edgeStyle=orthogonalEdgeStyle;rounded=0;orthogonalLoop=1;jettySize=auto;html=1;exitX=0.75;exitY=0;exitDx=0;exitDy=0;fontFamily=Helvetica;fontSize=12;fontColor=default;entryX=0.75;entryY=0;entryDx=0;entryDy=0;" parent="1" edge="1">
          <mxGeometry relative="1" as="geometry">
            <mxPoint x="-570" y="559" as="targetPoint" />
            <mxPoint x="-680" y="560" as="sourcePoint" />
            <Array as="points">
              <mxPoint x="-624" y="560" />
            </Array>
          </mxGeometry>
        </mxCell>
        <mxCell id="FFo2ZRcjo2irA0ZrbvkW-51" value="IRQ5" style="edgeLabel;html=1;align=center;verticalAlign=middle;resizable=0;points=[];strokeColor=default;strokeWidth=1;fontFamily=Helvetica;fontSize=12;fontColor=default;fillColor=default;" parent="FFo2ZRcjo2irA0ZrbvkW-43" vertex="1" connectable="0">
          <mxGeometry x="-0.44" y="-2" relative="1" as="geometry">
            <mxPoint as="offset" />
          </mxGeometry>
        </mxCell>
        <mxCell id="FFo2ZRcjo2irA0ZrbvkW-44" style="edgeStyle=orthogonalEdgeStyle;rounded=0;orthogonalLoop=1;jettySize=auto;html=1;exitX=0.75;exitY=0;exitDx=0;exitDy=0;fontFamily=Helvetica;fontSize=12;fontColor=default;entryX=0.75;entryY=0;entryDx=0;entryDy=0;" parent="1" edge="1">
          <mxGeometry relative="1" as="geometry">
            <mxPoint x="-570" y="660" as="targetPoint" />
            <mxPoint x="-680" y="661" as="sourcePoint" />
            <Array as="points">
              <mxPoint x="-624" y="661" />
            </Array>
          </mxGeometry>
        </mxCell>
        <mxCell id="FFo2ZRcjo2irA0ZrbvkW-52" value="IRQ6" style="edgeLabel;html=1;align=center;verticalAlign=middle;resizable=0;points=[];strokeColor=default;strokeWidth=1;fontFamily=Helvetica;fontSize=12;fontColor=default;fillColor=default;" parent="FFo2ZRcjo2irA0ZrbvkW-44" vertex="1" connectable="0">
          <mxGeometry x="-0.5605" y="-2" relative="1" as="geometry">
            <mxPoint as="offset" />
          </mxGeometry>
        </mxCell>
        <mxCell id="FFo2ZRcjo2irA0ZrbvkW-45" style="edgeStyle=orthogonalEdgeStyle;rounded=0;orthogonalLoop=1;jettySize=auto;html=1;exitX=0.75;exitY=0;exitDx=0;exitDy=0;fontFamily=Helvetica;fontSize=12;fontColor=default;entryX=0.75;entryY=0;entryDx=0;entryDy=0;" parent="1" edge="1">
          <mxGeometry relative="1" as="geometry">
            <mxPoint x="-570" y="719" as="targetPoint" />
            <mxPoint x="-680" y="720" as="sourcePoint" />
            <Array as="points">
              <mxPoint x="-624" y="720" />
            </Array>
          </mxGeometry>
        </mxCell>
        <mxCell id="FFo2ZRcjo2irA0ZrbvkW-53" value="IRQ7" style="edgeLabel;html=1;align=center;verticalAlign=middle;resizable=0;points=[];strokeColor=default;strokeWidth=1;fontFamily=Helvetica;fontSize=12;fontColor=default;fillColor=default;" parent="FFo2ZRcjo2irA0ZrbvkW-45" vertex="1" connectable="0">
          <mxGeometry x="-0.5128" y="2" relative="1" as="geometry">
            <mxPoint as="offset" />
          </mxGeometry>
        </mxCell>
        <mxCell id="FFo2ZRcjo2irA0ZrbvkW-56" style="edgeStyle=orthogonalEdgeStyle;rounded=0;orthogonalLoop=1;jettySize=auto;html=1;exitX=0.5;exitY=1;exitDx=0;exitDy=0;entryX=0.396;entryY=0.917;entryDx=0;entryDy=0;entryPerimeter=0;fontFamily=Helvetica;fontSize=12;fontColor=default;" parent="1" source="FFo2ZRcjo2irA0ZrbvkW-32" target="FFo2ZRcjo2irA0ZrbvkW-34" edge="1">
          <mxGeometry relative="1" as="geometry" />
        </mxCell>
        <mxCell id="FFo2ZRcjo2irA0ZrbvkW-57" style="edgeStyle=orthogonalEdgeStyle;rounded=0;orthogonalLoop=1;jettySize=auto;html=1;entryX=0.696;entryY=0.963;entryDx=0;entryDy=0;entryPerimeter=0;fontFamily=Helvetica;fontSize=12;fontColor=default;" parent="1" target="FFo2ZRcjo2irA0ZrbvkW-35" edge="1">
          <mxGeometry relative="1" as="geometry">
            <mxPoint x="-510" y="530" as="sourcePoint" />
          </mxGeometry>
        </mxCell>
        <mxCell id="FFo2ZRcjo2irA0ZrbvkW-73" style="edgeStyle=orthogonalEdgeStyle;rounded=0;orthogonalLoop=1;jettySize=auto;html=1;exitX=0.75;exitY=0;exitDx=0;exitDy=0;fontFamily=Helvetica;fontSize=12;fontColor=default;entryX=0.75;entryY=0;entryDx=0;entryDy=0;" parent="1" target="FFo2ZRcjo2irA0ZrbvkW-78" edge="1">
          <mxGeometry relative="1" as="geometry">
            <mxPoint x="-680" y="866" as="sourcePoint" />
            <Array as="points">
              <mxPoint x="-624" y="866" />
            </Array>
          </mxGeometry>
        </mxCell>
        <mxCell id="FFo2ZRcjo2irA0ZrbvkW-74" value="IPRA[2:0]" style="edgeLabel;html=1;align=center;verticalAlign=middle;resizable=0;points=[];strokeColor=default;strokeWidth=1;fontFamily=Helvetica;fontSize=12;fontColor=default;fillColor=default;" parent="FFo2ZRcjo2irA0ZrbvkW-73" vertex="1" connectable="0">
          <mxGeometry x="-0.4255" y="2" relative="1" as="geometry">
            <mxPoint as="offset" />
          </mxGeometry>
        </mxCell>
        <mxCell id="FFo2ZRcjo2irA0ZrbvkW-75" style="edgeStyle=orthogonalEdgeStyle;rounded=0;orthogonalLoop=1;jettySize=auto;html=1;exitX=0.5;exitY=1;exitDx=0;exitDy=0;entryX=0.75;entryY=0;entryDx=0;entryDy=0;fontFamily=Helvetica;fontSize=12;fontColor=default;" parent="1" source="FFo2ZRcjo2irA0ZrbvkW-78" target="FFo2ZRcjo2irA0ZrbvkW-91" edge="1">
          <mxGeometry relative="1" as="geometry" />
        </mxCell>
        <mxCell id="FFo2ZRcjo2irA0ZrbvkW-76" style="edgeStyle=orthogonalEdgeStyle;rounded=0;orthogonalLoop=1;jettySize=auto;html=1;exitX=1;exitY=0.5;exitDx=0;exitDy=0;fontFamily=Helvetica;fontSize=12;fontColor=default;entryX=1;entryY=0.5;entryDx=0;entryDy=0;" parent="1" target="FFo2ZRcjo2irA0ZrbvkW-78" edge="1">
          <mxGeometry relative="1" as="geometry">
            <mxPoint x="-539.5999999999999" y="770" as="sourcePoint" />
          </mxGeometry>
        </mxCell>
        <mxCell id="FFo2ZRcjo2irA0ZrbvkW-77" value="IPRA[2:0]&amp;gt;IPRA[6:4]" style="edgeLabel;html=1;align=center;verticalAlign=middle;resizable=0;points=[];strokeColor=default;strokeWidth=1;fontFamily=Helvetica;fontSize=12;fontColor=default;fillColor=default;" parent="FFo2ZRcjo2irA0ZrbvkW-76" vertex="1" connectable="0">
          <mxGeometry x="-0.5431" y="1" relative="1" as="geometry">
            <mxPoint as="offset" />
          </mxGeometry>
        </mxCell>
        <mxCell id="FFo2ZRcjo2irA0ZrbvkW-78" value="" style="verticalLabelPosition=middle;verticalAlign=middle;html=1;shape=trapezoid;perimeter=trapezoidPerimeter;whiteSpace=wrap;size=0.23;arcSize=10;flipV=1;labelPosition=center;align=center;strokeColor=default;strokeWidth=1;fontFamily=Helvetica;fontSize=12;fontColor=default;fillColor=default;rotation=-90;" parent="1" vertex="1">
          <mxGeometry x="-590" y="860" width="100" height="60" as="geometry" />
        </mxCell>
        <mxCell id="FFo2ZRcjo2irA0ZrbvkW-79" style="edgeStyle=orthogonalEdgeStyle;rounded=0;orthogonalLoop=1;jettySize=auto;html=1;exitX=0.5;exitY=1;exitDx=0;exitDy=0;entryX=0.25;entryY=0;entryDx=0;entryDy=0;fontFamily=Helvetica;fontSize=12;fontColor=default;" parent="1" source="FFo2ZRcjo2irA0ZrbvkW-82" target="FFo2ZRcjo2irA0ZrbvkW-94" edge="1">
          <mxGeometry relative="1" as="geometry" />
        </mxCell>
        <mxCell id="FFo2ZRcjo2irA0ZrbvkW-80" style="edgeStyle=orthogonalEdgeStyle;rounded=0;orthogonalLoop=1;jettySize=auto;html=1;exitX=1;exitY=0.5;exitDx=0;exitDy=0;fontFamily=Helvetica;fontSize=12;fontColor=default;entryX=1;entryY=0.5;entryDx=0;entryDy=0;" parent="1" target="FFo2ZRcjo2irA0ZrbvkW-82" edge="1">
          <mxGeometry relative="1" as="geometry">
            <mxPoint x="-539.5999999999999" y="1270" as="sourcePoint" />
          </mxGeometry>
        </mxCell>
        <mxCell id="FFo2ZRcjo2irA0ZrbvkW-81" value="IPRD[2:0]&amp;gt;IPRD[6:4]" style="edgeLabel;html=1;align=center;verticalAlign=middle;resizable=0;points=[];strokeColor=default;strokeWidth=1;fontFamily=Helvetica;fontSize=12;fontColor=default;fillColor=default;" parent="FFo2ZRcjo2irA0ZrbvkW-80" vertex="1" connectable="0">
          <mxGeometry x="-0.4337" y="1" relative="1" as="geometry">
            <mxPoint as="offset" />
          </mxGeometry>
        </mxCell>
        <mxCell id="FFo2ZRcjo2irA0ZrbvkW-82" value="" style="verticalLabelPosition=middle;verticalAlign=middle;html=1;shape=trapezoid;perimeter=trapezoidPerimeter;whiteSpace=wrap;size=0.23;arcSize=10;flipV=1;labelPosition=center;align=center;strokeColor=default;strokeWidth=1;fontFamily=Helvetica;fontSize=12;fontColor=default;fillColor=default;rotation=-90;" parent="1" vertex="1">
          <mxGeometry x="-590" y="1330" width="100" height="60" as="geometry" />
        </mxCell>
        <mxCell id="FFo2ZRcjo2irA0ZrbvkW-83" style="edgeStyle=orthogonalEdgeStyle;rounded=0;orthogonalLoop=1;jettySize=auto;html=1;exitX=1;exitY=0.5;exitDx=0;exitDy=0;fontFamily=Helvetica;fontSize=12;fontColor=default;entryX=1;entryY=0.5;entryDx=0;entryDy=0;" parent="1" target="FFo2ZRcjo2irA0ZrbvkW-85" edge="1">
          <mxGeometry relative="1" as="geometry">
            <mxPoint x="-539.5999999999999" y="950" as="sourcePoint" />
          </mxGeometry>
        </mxCell>
        <mxCell id="FFo2ZRcjo2irA0ZrbvkW-84" value="IPRB[2:0]&amp;gt;IPRB[6:4]" style="edgeLabel;html=1;align=center;verticalAlign=middle;resizable=0;points=[];strokeColor=default;strokeWidth=1;fontFamily=Helvetica;fontSize=12;fontColor=default;fillColor=default;" parent="FFo2ZRcjo2irA0ZrbvkW-83" vertex="1" connectable="0">
          <mxGeometry x="-0.423" relative="1" as="geometry">
            <mxPoint as="offset" />
          </mxGeometry>
        </mxCell>
        <mxCell id="FFo2ZRcjo2irA0ZrbvkW-85" value="" style="verticalLabelPosition=middle;verticalAlign=middle;html=1;shape=trapezoid;perimeter=trapezoidPerimeter;whiteSpace=wrap;size=0.23;arcSize=10;flipV=1;labelPosition=center;align=center;strokeColor=default;strokeWidth=1;fontFamily=Helvetica;fontSize=12;fontColor=default;fillColor=default;rotation=-90;" parent="1" vertex="1">
          <mxGeometry x="-590" y="1020" width="100" height="60" as="geometry" />
        </mxCell>
        <mxCell id="FFo2ZRcjo2irA0ZrbvkW-86" style="edgeStyle=orthogonalEdgeStyle;rounded=0;orthogonalLoop=1;jettySize=auto;html=1;exitX=1;exitY=0.5;exitDx=0;exitDy=0;fontFamily=Helvetica;fontSize=12;fontColor=default;entryX=1;entryY=0.5;entryDx=0;entryDy=0;" parent="1" target="FFo2ZRcjo2irA0ZrbvkW-88" edge="1">
          <mxGeometry relative="1" as="geometry">
            <mxPoint x="-539.5999999999999" y="1110" as="sourcePoint" />
          </mxGeometry>
        </mxCell>
        <mxCell id="FFo2ZRcjo2irA0ZrbvkW-87" value="IPRC[2:0]&amp;gt;IPRC[6:4]" style="edgeLabel;html=1;align=center;verticalAlign=middle;resizable=0;points=[];strokeColor=default;strokeWidth=1;fontFamily=Helvetica;fontSize=12;fontColor=default;fillColor=default;" parent="FFo2ZRcjo2irA0ZrbvkW-86" vertex="1" connectable="0">
          <mxGeometry x="-0.3123" relative="1" as="geometry">
            <mxPoint as="offset" />
          </mxGeometry>
        </mxCell>
        <mxCell id="FFo2ZRcjo2irA0ZrbvkW-88" value="" style="verticalLabelPosition=middle;verticalAlign=middle;html=1;shape=trapezoid;perimeter=trapezoidPerimeter;whiteSpace=wrap;size=0.23;arcSize=10;flipV=1;labelPosition=center;align=center;strokeColor=default;strokeWidth=1;fontFamily=Helvetica;fontSize=12;fontColor=default;fillColor=default;rotation=-90;" parent="1" vertex="1">
          <mxGeometry x="-590" y="1170" width="100" height="60" as="geometry" />
        </mxCell>
        <mxCell id="FFo2ZRcjo2irA0ZrbvkW-89" style="edgeStyle=orthogonalEdgeStyle;rounded=0;orthogonalLoop=1;jettySize=auto;html=1;exitX=0.5;exitY=1;exitDx=0;exitDy=0;entryX=0.75;entryY=0;entryDx=0;entryDy=0;fontFamily=Helvetica;fontSize=12;fontColor=default;" parent="1" source="FFo2ZRcjo2irA0ZrbvkW-91" target="FFo2ZRcjo2irA0ZrbvkW-97" edge="1">
          <mxGeometry relative="1" as="geometry" />
        </mxCell>
        <mxCell id="FFo2ZRcjo2irA0ZrbvkW-120" style="edgeStyle=orthogonalEdgeStyle;rounded=0;orthogonalLoop=1;jettySize=auto;html=1;exitX=1;exitY=0.5;exitDx=0;exitDy=0;fontFamily=Helvetica;fontSize=12;fontColor=default;entryX=1;entryY=0.5;entryDx=0;entryDy=0;" parent="1" target="FFo2ZRcjo2irA0ZrbvkW-91" edge="1">
          <mxGeometry relative="1" as="geometry">
            <mxPoint x="-375.0952380952381" y="940" as="sourcePoint" />
          </mxGeometry>
        </mxCell>
        <mxCell id="FFo2ZRcjo2irA0ZrbvkW-91" value="" style="verticalLabelPosition=middle;verticalAlign=middle;html=1;shape=trapezoid;perimeter=trapezoidPerimeter;whiteSpace=wrap;size=0.23;arcSize=10;flipV=1;labelPosition=center;align=center;strokeColor=default;strokeWidth=1;fontFamily=Helvetica;fontSize=12;fontColor=default;fillColor=default;rotation=-90;" parent="1" vertex="1">
          <mxGeometry x="-425" y="1010" width="100" height="60" as="geometry" />
        </mxCell>
        <mxCell id="FFo2ZRcjo2irA0ZrbvkW-92" style="edgeStyle=orthogonalEdgeStyle;rounded=0;orthogonalLoop=1;jettySize=auto;html=1;exitX=0.5;exitY=1;exitDx=0;exitDy=0;entryX=0.5;entryY=0;entryDx=0;entryDy=0;fontFamily=Helvetica;fontSize=12;fontColor=default;" parent="1" source="FFo2ZRcjo2irA0ZrbvkW-94" target="FFo2ZRcjo2irA0ZrbvkW-97" edge="1">
          <mxGeometry relative="1" as="geometry" />
        </mxCell>
        <mxCell id="FFo2ZRcjo2irA0ZrbvkW-93" style="edgeStyle=orthogonalEdgeStyle;rounded=0;orthogonalLoop=1;jettySize=auto;html=1;exitX=0;exitY=0.5;exitDx=0;exitDy=0;fontFamily=Helvetica;fontSize=12;fontColor=default;entryX=0;entryY=0.5;entryDx=0;entryDy=0;" parent="1" target="FFo2ZRcjo2irA0ZrbvkW-94" edge="1">
          <mxGeometry relative="1" as="geometry">
            <mxPoint x="-374.79999999999995" y="1290" as="sourcePoint" />
          </mxGeometry>
        </mxCell>
        <mxCell id="FFo2ZRcjo2irA0ZrbvkW-94" value="" style="verticalLabelPosition=middle;verticalAlign=middle;html=1;shape=trapezoid;perimeter=trapezoidPerimeter;whiteSpace=wrap;size=0.23;arcSize=10;flipV=1;labelPosition=center;align=center;strokeColor=default;strokeWidth=1;fontFamily=Helvetica;fontSize=12;fontColor=default;fillColor=default;rotation=-90;" parent="1" vertex="1">
          <mxGeometry x="-425" y="1160" width="100" height="60" as="geometry" />
        </mxCell>
        <mxCell id="FFo2ZRcjo2irA0ZrbvkW-95" style="edgeStyle=orthogonalEdgeStyle;rounded=0;orthogonalLoop=1;jettySize=auto;html=1;exitX=0.5;exitY=1;exitDx=0;exitDy=0;fontFamily=Helvetica;fontSize=12;fontColor=default;" parent="1" source="FFo2ZRcjo2irA0ZrbvkW-97" edge="1">
          <mxGeometry relative="1" as="geometry">
            <mxPoint x="-140" y="1120" as="targetPoint" />
          </mxGeometry>
        </mxCell>
        <mxCell id="FFo2ZRcjo2irA0ZrbvkW-96" style="edgeStyle=orthogonalEdgeStyle;rounded=0;orthogonalLoop=1;jettySize=auto;html=1;exitX=1;exitY=0.5;exitDx=0;exitDy=0;fontFamily=Helvetica;fontSize=12;fontColor=default;entryX=1;entryY=0.5;entryDx=0;entryDy=0;" parent="1" target="FFo2ZRcjo2irA0ZrbvkW-97" edge="1">
          <mxGeometry relative="1" as="geometry">
            <mxPoint x="-239.5999999999999" y="1020" as="sourcePoint" />
          </mxGeometry>
        </mxCell>
        <mxCell id="FFo2ZRcjo2irA0ZrbvkW-97" value="" style="verticalLabelPosition=middle;verticalAlign=middle;html=1;shape=trapezoid;perimeter=trapezoidPerimeter;whiteSpace=wrap;size=0.23;arcSize=10;flipV=1;labelPosition=center;align=center;strokeColor=default;strokeWidth=1;fontFamily=Helvetica;fontSize=12;fontColor=default;fillColor=default;rotation=-90;" parent="1" vertex="1">
          <mxGeometry x="-290" y="1090" width="100" height="60" as="geometry" />
        </mxCell>
        <mxCell id="FFo2ZRcjo2irA0ZrbvkW-98" style="edgeStyle=orthogonalEdgeStyle;rounded=0;orthogonalLoop=1;jettySize=auto;html=1;exitX=0.75;exitY=0;exitDx=0;exitDy=0;fontFamily=Helvetica;fontSize=12;fontColor=default;entryX=0.75;entryY=0;entryDx=0;entryDy=0;" parent="1" edge="1">
          <mxGeometry relative="1" as="geometry">
            <mxPoint x="-570" y="900" as="targetPoint" />
            <mxPoint x="-680" y="901" as="sourcePoint" />
          </mxGeometry>
        </mxCell>
        <mxCell id="FFo2ZRcjo2irA0ZrbvkW-99" value="IPRA[6:4]" style="edgeLabel;html=1;align=center;verticalAlign=middle;resizable=0;points=[];strokeColor=default;strokeWidth=1;fontFamily=Helvetica;fontSize=12;fontColor=default;fillColor=default;" parent="FFo2ZRcjo2irA0ZrbvkW-98" vertex="1" connectable="0">
          <mxGeometry x="-0.5897" y="2" relative="1" as="geometry">
            <mxPoint as="offset" />
          </mxGeometry>
        </mxCell>
        <mxCell id="FFo2ZRcjo2irA0ZrbvkW-100" style="edgeStyle=orthogonalEdgeStyle;rounded=0;orthogonalLoop=1;jettySize=auto;html=1;exitX=0.75;exitY=0;exitDx=0;exitDy=0;fontFamily=Helvetica;fontSize=12;fontColor=default;entryX=0.75;entryY=0;entryDx=0;entryDy=0;" parent="1" edge="1">
          <mxGeometry relative="1" as="geometry">
            <mxPoint x="-570" y="1020" as="targetPoint" />
            <mxPoint x="-680" y="1021" as="sourcePoint" />
            <Array as="points">
              <mxPoint x="-624" y="1021" />
            </Array>
          </mxGeometry>
        </mxCell>
        <mxCell id="FFo2ZRcjo2irA0ZrbvkW-101" value="IPRB[2:0]" style="edgeLabel;html=1;align=center;verticalAlign=middle;resizable=0;points=[];strokeColor=default;strokeWidth=1;fontFamily=Helvetica;fontSize=12;fontColor=default;fillColor=default;" parent="FFo2ZRcjo2irA0ZrbvkW-100" vertex="1" connectable="0">
          <mxGeometry x="-0.5028" y="-4" relative="1" as="geometry">
            <mxPoint as="offset" />
          </mxGeometry>
        </mxCell>
        <mxCell id="FFo2ZRcjo2irA0ZrbvkW-102" style="edgeStyle=orthogonalEdgeStyle;rounded=0;orthogonalLoop=1;jettySize=auto;html=1;exitX=0.75;exitY=0;exitDx=0;exitDy=0;fontFamily=Helvetica;fontSize=12;fontColor=default;entryX=0.75;entryY=0;entryDx=0;entryDy=0;" parent="1" edge="1">
          <mxGeometry relative="1" as="geometry">
            <mxPoint x="-570" y="1070" as="targetPoint" />
            <mxPoint x="-680" y="1071" as="sourcePoint" />
            <Array as="points">
              <mxPoint x="-624" y="1071" />
            </Array>
          </mxGeometry>
        </mxCell>
        <mxCell id="FFo2ZRcjo2irA0ZrbvkW-103" value="IPRB[6:4]" style="edgeLabel;html=1;align=center;verticalAlign=middle;resizable=0;points=[];strokeColor=default;strokeWidth=1;fontFamily=Helvetica;fontSize=12;fontColor=default;fillColor=default;" parent="FFo2ZRcjo2irA0ZrbvkW-102" vertex="1" connectable="0">
          <mxGeometry x="-0.5317" y="2" relative="1" as="geometry">
            <mxPoint as="offset" />
          </mxGeometry>
        </mxCell>
        <mxCell id="FFo2ZRcjo2irA0ZrbvkW-104" style="edgeStyle=orthogonalEdgeStyle;rounded=0;orthogonalLoop=1;jettySize=auto;html=1;exitX=0.75;exitY=0;exitDx=0;exitDy=0;fontFamily=Helvetica;fontSize=12;fontColor=default;entryX=0.75;entryY=0;entryDx=0;entryDy=0;" parent="1" edge="1">
          <mxGeometry relative="1" as="geometry">
            <mxPoint x="-570" y="1170" as="targetPoint" />
            <mxPoint x="-680" y="1171" as="sourcePoint" />
            <Array as="points">
              <mxPoint x="-624" y="1171" />
            </Array>
          </mxGeometry>
        </mxCell>
        <mxCell id="FFo2ZRcjo2irA0ZrbvkW-105" value="IPRC[2:0]" style="edgeLabel;html=1;align=center;verticalAlign=middle;resizable=0;points=[];strokeColor=default;strokeWidth=1;fontFamily=Helvetica;fontSize=12;fontColor=default;fillColor=default;" parent="FFo2ZRcjo2irA0ZrbvkW-104" vertex="1" connectable="0">
          <mxGeometry x="-0.5173" y="-2" relative="1" as="geometry">
            <mxPoint as="offset" />
          </mxGeometry>
        </mxCell>
        <mxCell id="FFo2ZRcjo2irA0ZrbvkW-106" style="edgeStyle=orthogonalEdgeStyle;rounded=0;orthogonalLoop=1;jettySize=auto;html=1;exitX=0.75;exitY=0;exitDx=0;exitDy=0;fontFamily=Helvetica;fontSize=12;fontColor=default;entryX=0.75;entryY=0;entryDx=0;entryDy=0;" parent="1" edge="1">
          <mxGeometry relative="1" as="geometry">
            <mxPoint x="-570" y="1229" as="targetPoint" />
            <mxPoint x="-680" y="1230" as="sourcePoint" />
            <Array as="points">
              <mxPoint x="-624" y="1230" />
            </Array>
          </mxGeometry>
        </mxCell>
        <mxCell id="FFo2ZRcjo2irA0ZrbvkW-107" value="IPRC[6:4]" style="edgeLabel;html=1;align=center;verticalAlign=middle;resizable=0;points=[];strokeColor=default;strokeWidth=1;fontFamily=Helvetica;fontSize=12;fontColor=default;fillColor=default;" parent="FFo2ZRcjo2irA0ZrbvkW-106" vertex="1" connectable="0">
          <mxGeometry x="-0.44" y="-2" relative="1" as="geometry">
            <mxPoint as="offset" />
          </mxGeometry>
        </mxCell>
        <mxCell id="FFo2ZRcjo2irA0ZrbvkW-108" style="edgeStyle=orthogonalEdgeStyle;rounded=0;orthogonalLoop=1;jettySize=auto;html=1;exitX=0.75;exitY=0;exitDx=0;exitDy=0;fontFamily=Helvetica;fontSize=12;fontColor=default;entryX=0.75;entryY=0;entryDx=0;entryDy=0;" parent="1" edge="1">
          <mxGeometry relative="1" as="geometry">
            <mxPoint x="-570" y="1330" as="targetPoint" />
            <mxPoint x="-680" y="1331" as="sourcePoint" />
            <Array as="points">
              <mxPoint x="-624" y="1331" />
            </Array>
          </mxGeometry>
        </mxCell>
        <mxCell id="FFo2ZRcjo2irA0ZrbvkW-109" value="IPRD[2:0]" style="edgeLabel;html=1;align=center;verticalAlign=middle;resizable=0;points=[];strokeColor=default;strokeWidth=1;fontFamily=Helvetica;fontSize=12;fontColor=default;fillColor=default;" parent="FFo2ZRcjo2irA0ZrbvkW-108" vertex="1" connectable="0">
          <mxGeometry x="-0.5605" y="-2" relative="1" as="geometry">
            <mxPoint as="offset" />
          </mxGeometry>
        </mxCell>
        <mxCell id="FFo2ZRcjo2irA0ZrbvkW-110" style="edgeStyle=orthogonalEdgeStyle;rounded=0;orthogonalLoop=1;jettySize=auto;html=1;exitX=0.75;exitY=0;exitDx=0;exitDy=0;fontFamily=Helvetica;fontSize=12;fontColor=default;entryX=0.75;entryY=0;entryDx=0;entryDy=0;" parent="1" edge="1">
          <mxGeometry relative="1" as="geometry">
            <mxPoint x="-570" y="1389" as="targetPoint" />
            <mxPoint x="-680" y="1390" as="sourcePoint" />
            <Array as="points">
              <mxPoint x="-624" y="1390" />
            </Array>
          </mxGeometry>
        </mxCell>
        <mxCell id="FFo2ZRcjo2irA0ZrbvkW-111" value="IPRD[6:4]" style="edgeLabel;html=1;align=center;verticalAlign=middle;resizable=0;points=[];strokeColor=default;strokeWidth=1;fontFamily=Helvetica;fontSize=12;fontColor=default;fillColor=default;" parent="FFo2ZRcjo2irA0ZrbvkW-110" vertex="1" connectable="0">
          <mxGeometry x="-0.5128" y="2" relative="1" as="geometry">
            <mxPoint as="offset" />
          </mxGeometry>
        </mxCell>
        <mxCell id="FFo2ZRcjo2irA0ZrbvkW-112" style="edgeStyle=orthogonalEdgeStyle;rounded=0;orthogonalLoop=1;jettySize=auto;html=1;exitX=0.5;exitY=1;exitDx=0;exitDy=0;entryX=0.396;entryY=0.917;entryDx=0;entryDy=0;entryPerimeter=0;fontFamily=Helvetica;fontSize=12;fontColor=default;" parent="1" source="FFo2ZRcjo2irA0ZrbvkW-85" target="FFo2ZRcjo2irA0ZrbvkW-91" edge="1">
          <mxGeometry relative="1" as="geometry" />
        </mxCell>
        <mxCell id="FFo2ZRcjo2irA0ZrbvkW-113" style="edgeStyle=orthogonalEdgeStyle;rounded=0;orthogonalLoop=1;jettySize=auto;html=1;exitX=0.5;exitY=1;exitDx=0;exitDy=0;entryX=0.696;entryY=0.963;entryDx=0;entryDy=0;entryPerimeter=0;fontFamily=Helvetica;fontSize=12;fontColor=default;" parent="1" source="FFo2ZRcjo2irA0ZrbvkW-88" target="FFo2ZRcjo2irA0ZrbvkW-94" edge="1">
          <mxGeometry relative="1" as="geometry" />
        </mxCell>
        <mxCell id="FFo2ZRcjo2irA0ZrbvkW-116" value="(IPRC[2:0]&amp;gt;IPRC[6:4])&amp;gt;(IPRD[2:0]&amp;gt;IPRD[6:4])" style="edgeLabel;html=1;align=center;verticalAlign=middle;resizable=0;points=[];strokeColor=default;strokeWidth=1;fontFamily=Helvetica;fontSize=12;fontColor=default;fillColor=default;" parent="1" vertex="1" connectable="0">
          <mxGeometry x="-309.6519776403388" y="629.9971951178957" as="geometry" />
        </mxCell>
        <mxCell id="FFo2ZRcjo2irA0ZrbvkW-119" value="(IPRA[2:0]&amp;gt;IPRA[6:4])&amp;gt;(IPRB[2:0]&amp;gt;IPRB[6:4])" style="edgeLabel;html=1;align=center;verticalAlign=middle;resizable=0;points=[];strokeColor=default;strokeWidth=1;fontFamily=Helvetica;fontSize=12;fontColor=default;fillColor=default;" parent="1" vertex="1" connectable="0">
          <mxGeometry x="-325.00197764033885" y="939.9971951178957" as="geometry" />
        </mxCell>
        <mxCell id="FFo2ZRcjo2irA0ZrbvkW-121" value="(IPRC[2:0]&amp;gt;IPRC[6:4])&amp;gt;(IPRD[2:0]&amp;gt;IPRD[6:4])" style="edgeLabel;html=1;align=center;verticalAlign=middle;resizable=0;points=[];strokeColor=default;strokeWidth=1;fontFamily=Helvetica;fontSize=12;fontColor=default;fillColor=default;" parent="1" vertex="1" connectable="0">
          <mxGeometry x="-290.00197764033885" y="989.9971951178957" as="geometry">
            <mxPoint x="-26" y="290" as="offset" />
          </mxGeometry>
        </mxCell>
        <mxCell id="FFo2ZRcjo2irA0ZrbvkW-122" value="MOST PRIORITIES" style="edgeLabel;html=1;align=center;verticalAlign=middle;resizable=0;points=[];strokeColor=default;strokeWidth=1;fontFamily=Helvetica;fontSize=12;fontColor=default;fillColor=default;" parent="1" vertex="1" connectable="0">
          <mxGeometry x="-229.3363699551037" y="1030.000726798536" as="geometry" />
        </mxCell>
        <mxCell id="WSw43saYqRhFsblwPh-P-2" style="edgeStyle=orthogonalEdgeStyle;rounded=0;orthogonalLoop=1;jettySize=auto;html=1;exitX=0;exitY=0.25;exitDx=0;exitDy=0;" parent="1" edge="1">
          <mxGeometry relative="1" as="geometry">
            <mxPoint x="220" y="790" as="targetPoint" />
            <mxPoint x="60" y="790.3333333333335" as="sourcePoint" />
          </mxGeometry>
        </mxCell>
        <mxCell id="WSw43saYqRhFsblwPh-P-22" value="&lt;font style=&quot;font-size: 24px;&quot;&gt;pclk&lt;/font&gt;" style="edgeLabel;html=1;align=center;verticalAlign=middle;resizable=0;points=[];" parent="WSw43saYqRhFsblwPh-P-2" vertex="1" connectable="0">
          <mxGeometry x="-0.2893" y="4" relative="1" as="geometry">
            <mxPoint x="-76" y="-7" as="offset" />
          </mxGeometry>
        </mxCell>
        <mxCell id="WSw43saYqRhFsblwPh-P-1" value="&lt;font style=&quot;font-size: 48px;&quot;&gt;APB_RW&lt;/font&gt;" style="whiteSpace=wrap;html=1;aspect=fixed;" parent="1" vertex="1">
          <mxGeometry x="220" y="760" width="310" height="310" as="geometry" />
        </mxCell>
        <mxCell id="WSw43saYqRhFsblwPh-P-3" style="edgeStyle=orthogonalEdgeStyle;rounded=0;orthogonalLoop=1;jettySize=auto;html=1;exitX=0;exitY=0.25;exitDx=0;exitDy=0;" parent="1" edge="1">
          <mxGeometry relative="1" as="geometry">
            <mxPoint x="220" y="930" as="targetPoint" />
            <mxPoint x="60" y="930.3333333333335" as="sourcePoint" />
          </mxGeometry>
        </mxCell>
        <mxCell id="WSw43saYqRhFsblwPh-P-26" value="&lt;font style=&quot;font-size: 24px;&quot;&gt;penable&lt;/font&gt;" style="edgeLabel;html=1;align=center;verticalAlign=middle;resizable=0;points=[];" parent="WSw43saYqRhFsblwPh-P-3" vertex="1" connectable="0">
          <mxGeometry x="-0.5177" relative="1" as="geometry">
            <mxPoint x="-78" y="-16" as="offset" />
          </mxGeometry>
        </mxCell>
        <mxCell id="WSw43saYqRhFsblwPh-P-4" style="edgeStyle=orthogonalEdgeStyle;rounded=0;orthogonalLoop=1;jettySize=auto;html=1;exitX=0;exitY=0.25;exitDx=0;exitDy=0;" parent="1" edge="1">
          <mxGeometry relative="1" as="geometry">
            <mxPoint x="220" y="960" as="targetPoint" />
            <mxPoint x="60" y="960.3333333333335" as="sourcePoint" />
          </mxGeometry>
        </mxCell>
        <mxCell id="WSw43saYqRhFsblwPh-P-27" value="&lt;font style=&quot;font-size: 24px;&quot;&gt;paddr&lt;/font&gt;" style="edgeLabel;html=1;align=center;verticalAlign=middle;resizable=0;points=[];" parent="WSw43saYqRhFsblwPh-P-4" vertex="1" connectable="0">
          <mxGeometry x="-0.393" relative="1" as="geometry">
            <mxPoint x="-78" y="-11" as="offset" />
          </mxGeometry>
        </mxCell>
        <mxCell id="WSw43saYqRhFsblwPh-P-45" value="&lt;font style=&quot;font-size: 24px;&quot;&gt;8&lt;/font&gt;" style="edgeLabel;html=1;align=center;verticalAlign=middle;resizable=0;points=[];" parent="WSw43saYqRhFsblwPh-P-4" vertex="1" connectable="0">
          <mxGeometry x="-0.0399" y="5" relative="1" as="geometry">
            <mxPoint x="1" y="-1" as="offset" />
          </mxGeometry>
        </mxCell>
        <mxCell id="WSw43saYqRhFsblwPh-P-5" style="edgeStyle=orthogonalEdgeStyle;rounded=0;orthogonalLoop=1;jettySize=auto;html=1;exitX=0;exitY=0.25;exitDx=0;exitDy=0;" parent="1" edge="1">
          <mxGeometry relative="1" as="geometry">
            <mxPoint x="220" y="990" as="targetPoint" />
            <mxPoint x="60" y="990.3333333333335" as="sourcePoint" />
          </mxGeometry>
        </mxCell>
        <mxCell id="WSw43saYqRhFsblwPh-P-28" value="&lt;font style=&quot;font-size: 24px;&quot;&gt;pwdata&lt;/font&gt;" style="edgeLabel;html=1;align=center;verticalAlign=middle;resizable=0;points=[];" parent="WSw43saYqRhFsblwPh-P-5" vertex="1" connectable="0">
          <mxGeometry x="-0.5591" y="-1" relative="1" as="geometry">
            <mxPoint x="-75" y="-2" as="offset" />
          </mxGeometry>
        </mxCell>
        <mxCell id="WSw43saYqRhFsblwPh-P-42" value="&lt;font style=&quot;font-size: 24px;&quot;&gt;8&lt;/font&gt;" style="edgeLabel;html=1;align=center;verticalAlign=middle;resizable=0;points=[];" parent="WSw43saYqRhFsblwPh-P-5" vertex="1" connectable="0">
          <mxGeometry x="0.0751" y="3" relative="1" as="geometry">
            <mxPoint x="-1" as="offset" />
          </mxGeometry>
        </mxCell>
        <mxCell id="WSw43saYqRhFsblwPh-P-6" style="edgeStyle=orthogonalEdgeStyle;rounded=0;orthogonalLoop=1;jettySize=auto;html=1;exitX=0;exitY=0.25;exitDx=0;exitDy=0;" parent="1" edge="1">
          <mxGeometry relative="1" as="geometry">
            <mxPoint x="220" y="820" as="targetPoint" />
            <mxPoint x="60" y="820.3333333333335" as="sourcePoint" />
          </mxGeometry>
        </mxCell>
        <mxCell id="WSw43saYqRhFsblwPh-P-23" value="&lt;font style=&quot;font-size: 24px;&quot;&gt;preset_n&lt;/font&gt;" style="edgeLabel;html=1;align=center;verticalAlign=middle;resizable=0;points=[];" parent="WSw43saYqRhFsblwPh-P-6" vertex="1" connectable="0">
          <mxGeometry x="-0.4345" relative="1" as="geometry">
            <mxPoint x="-85" y="-11" as="offset" />
          </mxGeometry>
        </mxCell>
        <mxCell id="WSw43saYqRhFsblwPh-P-7" style="edgeStyle=orthogonalEdgeStyle;rounded=0;orthogonalLoop=1;jettySize=auto;html=1;exitX=0;exitY=0.25;exitDx=0;exitDy=0;" parent="1" edge="1">
          <mxGeometry relative="1" as="geometry">
            <mxPoint x="220" y="850" as="targetPoint" />
            <mxPoint x="60" y="850.3333333333335" as="sourcePoint" />
          </mxGeometry>
        </mxCell>
        <mxCell id="WSw43saYqRhFsblwPh-P-24" value="&lt;font style=&quot;font-size: 24px;&quot;&gt;pwrite&lt;/font&gt;" style="edgeLabel;html=1;align=center;verticalAlign=middle;resizable=0;points=[];" parent="WSw43saYqRhFsblwPh-P-7" vertex="1" connectable="0">
          <mxGeometry x="-0.1224" y="-3" relative="1" as="geometry">
            <mxPoint x="-100" y="-14" as="offset" />
          </mxGeometry>
        </mxCell>
        <mxCell id="WSw43saYqRhFsblwPh-P-8" style="edgeStyle=orthogonalEdgeStyle;rounded=0;orthogonalLoop=1;jettySize=auto;html=1;exitX=0;exitY=0.25;exitDx=0;exitDy=0;" parent="1" edge="1">
          <mxGeometry relative="1" as="geometry">
            <mxPoint x="220" y="880" as="targetPoint" />
            <mxPoint x="60" y="880.3333333333335" as="sourcePoint" />
          </mxGeometry>
        </mxCell>
        <mxCell id="WSw43saYqRhFsblwPh-P-25" value="&lt;font style=&quot;font-size: 24px;&quot;&gt;psel&lt;/font&gt;" style="edgeLabel;html=1;align=center;verticalAlign=middle;resizable=0;points=[];" parent="WSw43saYqRhFsblwPh-P-8" vertex="1" connectable="0">
          <mxGeometry x="-0.247" y="-5" relative="1" as="geometry">
            <mxPoint x="-90" y="-16" as="offset" />
          </mxGeometry>
        </mxCell>
        <mxCell id="WSw43saYqRhFsblwPh-P-10" style="edgeStyle=orthogonalEdgeStyle;rounded=0;orthogonalLoop=1;jettySize=auto;html=1;exitX=0;exitY=0.25;exitDx=0;exitDy=0;" parent="1" edge="1">
          <mxGeometry relative="1" as="geometry">
            <mxPoint x="220" y="1018.33" as="targetPoint" />
            <mxPoint x="60" y="1018.6633333333335" as="sourcePoint" />
          </mxGeometry>
        </mxCell>
        <mxCell id="WSw43saYqRhFsblwPh-P-29" value="&lt;font style=&quot;font-size: 24px;&quot;&gt;IRQ_state&lt;/font&gt;" style="edgeLabel;html=1;align=center;verticalAlign=middle;resizable=0;points=[];" parent="WSw43saYqRhFsblwPh-P-10" vertex="1" connectable="0">
          <mxGeometry x="-0.6427" y="4" relative="1" as="geometry">
            <mxPoint x="-78" y="5" as="offset" />
          </mxGeometry>
        </mxCell>
        <mxCell id="WSw43saYqRhFsblwPh-P-43" value="&lt;font style=&quot;font-size: 24px;&quot;&gt;8&lt;/font&gt;" style="edgeLabel;html=1;align=center;verticalAlign=middle;resizable=0;points=[];" parent="WSw43saYqRhFsblwPh-P-10" vertex="1" connectable="0">
          <mxGeometry x="0.0329" y="-5" relative="1" as="geometry">
            <mxPoint x="-1" y="-4" as="offset" />
          </mxGeometry>
        </mxCell>
        <mxCell id="WSw43saYqRhFsblwPh-P-11" style="edgeStyle=orthogonalEdgeStyle;rounded=0;orthogonalLoop=1;jettySize=auto;html=1;exitX=0;exitY=0.25;exitDx=0;exitDy=0;" parent="1" edge="1">
          <mxGeometry relative="1" as="geometry">
            <mxPoint x="220" y="1048.33" as="targetPoint" />
            <mxPoint x="60" y="1048.6633333333334" as="sourcePoint" />
          </mxGeometry>
        </mxCell>
        <mxCell id="WSw43saYqRhFsblwPh-P-30" value="&lt;font style=&quot;font-size: 24px;&quot;&gt;Int_IRQ_state&lt;/font&gt;" style="edgeLabel;html=1;align=center;verticalAlign=middle;resizable=0;points=[];" parent="WSw43saYqRhFsblwPh-P-11" vertex="1" connectable="0">
          <mxGeometry x="-0.6841" y="2" relative="1" as="geometry">
            <mxPoint x="-85" y="3" as="offset" />
          </mxGeometry>
        </mxCell>
        <mxCell id="WSw43saYqRhFsblwPh-P-44" value="&lt;font style=&quot;font-size: 24px;&quot;&gt;8&lt;/font&gt;" style="edgeLabel;html=1;align=center;verticalAlign=middle;resizable=0;points=[];" parent="WSw43saYqRhFsblwPh-P-11" vertex="1" connectable="0">
          <mxGeometry x="0.1993" y="-3" relative="1" as="geometry">
            <mxPoint x="-1" as="offset" />
          </mxGeometry>
        </mxCell>
        <mxCell id="WSw43saYqRhFsblwPh-P-13" style="edgeStyle=orthogonalEdgeStyle;rounded=0;orthogonalLoop=1;jettySize=auto;html=1;exitX=0;exitY=0.25;exitDx=0;exitDy=0;" parent="1" edge="1">
          <mxGeometry relative="1" as="geometry">
            <mxPoint x="690" y="770" as="targetPoint" />
            <mxPoint x="530" y="770.3333333333335" as="sourcePoint" />
          </mxGeometry>
        </mxCell>
        <mxCell id="WSw43saYqRhFsblwPh-P-31" value="&lt;font style=&quot;font-size: 24px;&quot;&gt;syscr&lt;/font&gt;" style="edgeLabel;html=1;align=center;verticalAlign=middle;resizable=0;points=[];" parent="WSw43saYqRhFsblwPh-P-13" vertex="1" connectable="0">
          <mxGeometry x="0.6363" y="2" relative="1" as="geometry">
            <mxPoint x="68" y="-13" as="offset" />
          </mxGeometry>
        </mxCell>
        <mxCell id="WSw43saYqRhFsblwPh-P-46" value="&lt;font style=&quot;font-size: 24px;&quot;&gt;8&lt;/font&gt;" style="edgeLabel;html=1;align=center;verticalAlign=middle;resizable=0;points=[];" parent="WSw43saYqRhFsblwPh-P-13" vertex="1" connectable="0">
          <mxGeometry x="-0.2263" y="-5" relative="1" as="geometry">
            <mxPoint x="19" y="-6" as="offset" />
          </mxGeometry>
        </mxCell>
        <mxCell id="WSw43saYqRhFsblwPh-P-14" style="edgeStyle=orthogonalEdgeStyle;rounded=0;orthogonalLoop=1;jettySize=auto;html=1;exitX=0;exitY=0.25;exitDx=0;exitDy=0;" parent="1" edge="1">
          <mxGeometry relative="1" as="geometry">
            <mxPoint x="690" y="900" as="targetPoint" />
            <mxPoint x="530" y="900.3333333333335" as="sourcePoint" />
          </mxGeometry>
        </mxCell>
        <mxCell id="WSw43saYqRhFsblwPh-P-35" value="&lt;font style=&quot;font-size: 24px;&quot;&gt;isra,isrb&lt;/font&gt;" style="edgeLabel;html=1;align=center;verticalAlign=middle;resizable=0;points=[];" parent="WSw43saYqRhFsblwPh-P-14" vertex="1" connectable="0">
          <mxGeometry x="0.7581" y="3" relative="1" as="geometry">
            <mxPoint x="80" y="-2" as="offset" />
          </mxGeometry>
        </mxCell>
        <mxCell id="WSw43saYqRhFsblwPh-P-50" value="&lt;font style=&quot;font-size: 24px;&quot;&gt;8&lt;/font&gt;" style="edgeLabel;html=1;align=center;verticalAlign=middle;resizable=0;points=[];" parent="WSw43saYqRhFsblwPh-P-14" vertex="1" connectable="0">
          <mxGeometry x="0.0539" y="-2" relative="1" as="geometry">
            <mxPoint x="-1" y="-12" as="offset" />
          </mxGeometry>
        </mxCell>
        <mxCell id="WSw43saYqRhFsblwPh-P-15" style="edgeStyle=orthogonalEdgeStyle;rounded=0;orthogonalLoop=1;jettySize=auto;html=1;exitX=0;exitY=0.25;exitDx=0;exitDy=0;" parent="1" edge="1">
          <mxGeometry relative="1" as="geometry">
            <mxPoint x="690" y="930" as="targetPoint" />
            <mxPoint x="530" y="930.3333333333335" as="sourcePoint" />
          </mxGeometry>
        </mxCell>
        <mxCell id="WSw43saYqRhFsblwPh-P-36" value="&lt;font style=&quot;font-size: 24px;&quot;&gt;tmo&lt;/font&gt;" style="edgeLabel;html=1;align=center;verticalAlign=middle;resizable=0;points=[];" parent="WSw43saYqRhFsblwPh-P-15" vertex="1" connectable="0">
          <mxGeometry x="0.5077" y="-5" relative="1" as="geometry">
            <mxPoint x="70" y="-10" as="offset" />
          </mxGeometry>
        </mxCell>
        <mxCell id="WSw43saYqRhFsblwPh-P-51" value="&lt;font style=&quot;font-size: 24px;&quot;&gt;8&lt;/font&gt;" style="edgeLabel;html=1;align=center;verticalAlign=middle;resizable=0;points=[];" parent="WSw43saYqRhFsblwPh-P-15" vertex="1" connectable="0">
          <mxGeometry x="0.0334" y="2" relative="1" as="geometry">
            <mxPoint x="-1" as="offset" />
          </mxGeometry>
        </mxCell>
        <mxCell id="WSw43saYqRhFsblwPh-P-16" style="edgeStyle=orthogonalEdgeStyle;rounded=0;orthogonalLoop=1;jettySize=auto;html=1;exitX=0;exitY=0.25;exitDx=0;exitDy=0;" parent="1" edge="1">
          <mxGeometry relative="1" as="geometry">
            <mxPoint x="690" y="960" as="targetPoint" />
            <mxPoint x="530" y="960.3333333333335" as="sourcePoint" />
          </mxGeometry>
        </mxCell>
        <mxCell id="WSw43saYqRhFsblwPh-P-37" value="&lt;font style=&quot;font-size: 24px;&quot;&gt;ssr&lt;/font&gt;" style="edgeLabel;html=1;align=center;verticalAlign=middle;resizable=0;points=[];" parent="WSw43saYqRhFsblwPh-P-16" vertex="1" connectable="0">
          <mxGeometry x="0.8829" y="3" relative="1" as="geometry">
            <mxPoint x="40" as="offset" />
          </mxGeometry>
        </mxCell>
        <mxCell id="WSw43saYqRhFsblwPh-P-52" value="&lt;font style=&quot;font-size: 24px;&quot;&gt;8&lt;/font&gt;" style="edgeLabel;html=1;align=center;verticalAlign=middle;resizable=0;points=[];" parent="WSw43saYqRhFsblwPh-P-16" vertex="1" connectable="0">
          <mxGeometry x="0.0335" y="3" relative="1" as="geometry">
            <mxPoint as="offset" />
          </mxGeometry>
        </mxCell>
        <mxCell id="WSw43saYqRhFsblwPh-P-17" style="edgeStyle=orthogonalEdgeStyle;rounded=0;orthogonalLoop=1;jettySize=auto;html=1;exitX=0;exitY=0.25;exitDx=0;exitDy=0;" parent="1" edge="1">
          <mxGeometry relative="1" as="geometry">
            <mxPoint x="690" y="800" as="targetPoint" />
            <mxPoint x="530" y="800.3333333333335" as="sourcePoint" />
          </mxGeometry>
        </mxCell>
        <mxCell id="WSw43saYqRhFsblwPh-P-32" value="&lt;font style=&quot;font-size: 24px;&quot;&gt;ipra,iprb,iprc,iprd&lt;/font&gt;" style="edgeLabel;html=1;align=center;verticalAlign=middle;resizable=0;points=[];" parent="WSw43saYqRhFsblwPh-P-17" vertex="1" connectable="0">
          <mxGeometry x="0.6156" y="3" relative="1" as="geometry">
            <mxPoint x="131" as="offset" />
          </mxGeometry>
        </mxCell>
        <mxCell id="WSw43saYqRhFsblwPh-P-47" value="&lt;font style=&quot;font-size: 24px;&quot;&gt;8&lt;/font&gt;" style="edgeLabel;html=1;align=center;verticalAlign=middle;resizable=0;points=[];" parent="WSw43saYqRhFsblwPh-P-17" vertex="1" connectable="0">
          <mxGeometry x="0.0337" y="5" relative="1" as="geometry">
            <mxPoint as="offset" />
          </mxGeometry>
        </mxCell>
        <mxCell id="WSw43saYqRhFsblwPh-P-18" style="edgeStyle=orthogonalEdgeStyle;rounded=0;orthogonalLoop=1;jettySize=auto;html=1;exitX=0;exitY=0.25;exitDx=0;exitDy=0;" parent="1" edge="1">
          <mxGeometry relative="1" as="geometry">
            <mxPoint x="690" y="830" as="targetPoint" />
            <mxPoint x="530" y="830.3333333333335" as="sourcePoint" />
          </mxGeometry>
        </mxCell>
        <mxCell id="WSw43saYqRhFsblwPh-P-33" value="&lt;span style=&quot;font-size: 24px;&quot;&gt;iscra,iscrb,iscrc,iscrd&lt;/span&gt;" style="edgeLabel;html=1;align=center;verticalAlign=middle;resizable=0;points=[];" parent="WSw43saYqRhFsblwPh-P-18" vertex="1" connectable="0">
          <mxGeometry x="0.8582" y="5" relative="1" as="geometry">
            <mxPoint x="132" as="offset" />
          </mxGeometry>
        </mxCell>
        <mxCell id="WSw43saYqRhFsblwPh-P-48" value="&lt;font style=&quot;font-size: 24px;&quot;&gt;8&lt;/font&gt;" style="edgeLabel;html=1;align=center;verticalAlign=middle;resizable=0;points=[];" parent="WSw43saYqRhFsblwPh-P-18" vertex="1" connectable="0">
          <mxGeometry x="-0.0606" y="4" relative="1" as="geometry">
            <mxPoint x="1" as="offset" />
          </mxGeometry>
        </mxCell>
        <mxCell id="WSw43saYqRhFsblwPh-P-19" style="edgeStyle=orthogonalEdgeStyle;rounded=0;orthogonalLoop=1;jettySize=auto;html=1;exitX=0;exitY=0.25;exitDx=0;exitDy=0;" parent="1" edge="1">
          <mxGeometry relative="1" as="geometry">
            <mxPoint x="690" y="860" as="targetPoint" />
            <mxPoint x="530" y="860.3333333333335" as="sourcePoint" />
          </mxGeometry>
        </mxCell>
        <mxCell id="WSw43saYqRhFsblwPh-P-34" value="&lt;font style=&quot;font-size: 24px;&quot;&gt;iera,ierb&lt;/font&gt;" style="edgeLabel;html=1;align=center;verticalAlign=middle;resizable=0;points=[];" parent="WSw43saYqRhFsblwPh-P-19" vertex="1" connectable="0">
          <mxGeometry x="0.8576" y="-1" relative="1" as="geometry">
            <mxPoint x="72" as="offset" />
          </mxGeometry>
        </mxCell>
        <mxCell id="WSw43saYqRhFsblwPh-P-49" value="&lt;font style=&quot;font-size: 24px;&quot;&gt;8&lt;/font&gt;" style="edgeLabel;html=1;align=center;verticalAlign=middle;resizable=0;points=[];" parent="WSw43saYqRhFsblwPh-P-19" vertex="1" connectable="0">
          <mxGeometry x="-0.0399" y="5" relative="1" as="geometry">
            <mxPoint x="1" y="-1" as="offset" />
          </mxGeometry>
        </mxCell>
        <mxCell id="WSw43saYqRhFsblwPh-P-20" style="edgeStyle=orthogonalEdgeStyle;rounded=0;orthogonalLoop=1;jettySize=auto;html=1;exitX=0;exitY=0.25;exitDx=0;exitDy=0;" parent="1" edge="1">
          <mxGeometry relative="1" as="geometry">
            <mxPoint x="690" y="989.9999999999999" as="targetPoint" />
            <mxPoint x="530" y="990.3333333333334" as="sourcePoint" />
          </mxGeometry>
        </mxCell>
        <mxCell id="WSw43saYqRhFsblwPh-P-38" value="&lt;font style=&quot;font-size: 24px;&quot;&gt;prdata&lt;/font&gt;" style="edgeLabel;html=1;align=center;verticalAlign=middle;resizable=0;points=[];" parent="WSw43saYqRhFsblwPh-P-20" vertex="1" connectable="0">
          <mxGeometry x="0.8329" y="-1" relative="1" as="geometry">
            <mxPoint x="62" y="-4" as="offset" />
          </mxGeometry>
        </mxCell>
        <mxCell id="WSw43saYqRhFsblwPh-P-53" value="&lt;font style=&quot;font-size: 24px;&quot;&gt;8&lt;/font&gt;" style="edgeLabel;html=1;align=center;verticalAlign=middle;resizable=0;points=[];" parent="WSw43saYqRhFsblwPh-P-20" vertex="1" connectable="0">
          <mxGeometry x="0.0543" y="3" relative="1" as="geometry">
            <mxPoint x="-1" as="offset" />
          </mxGeometry>
        </mxCell>
        <mxCell id="WSw43saYqRhFsblwPh-P-21" style="edgeStyle=orthogonalEdgeStyle;rounded=0;orthogonalLoop=1;jettySize=auto;html=1;exitX=0;exitY=0.25;exitDx=0;exitDy=0;" parent="1" edge="1">
          <mxGeometry relative="1" as="geometry">
            <mxPoint x="690" y="1019.9999999999999" as="targetPoint" />
            <mxPoint x="530" y="1020.3333333333334" as="sourcePoint" />
          </mxGeometry>
        </mxCell>
        <mxCell id="WSw43saYqRhFsblwPh-P-39" value="&lt;font style=&quot;font-size: 24px;&quot;&gt;pready&lt;/font&gt;" style="edgeLabel;html=1;align=center;verticalAlign=middle;resizable=0;points=[];" parent="WSw43saYqRhFsblwPh-P-21" vertex="1" connectable="0">
          <mxGeometry x="0.8825" y="-5" relative="1" as="geometry">
            <mxPoint x="49" y="-5" as="offset" />
          </mxGeometry>
        </mxCell>
        <mxCell id="WSw43saYqRhFsblwPh-P-40" style="edgeStyle=orthogonalEdgeStyle;rounded=0;orthogonalLoop=1;jettySize=auto;html=1;exitX=0;exitY=0.25;exitDx=0;exitDy=0;" parent="1" edge="1">
          <mxGeometry relative="1" as="geometry">
            <mxPoint x="690" y="1049.17" as="targetPoint" />
            <mxPoint x="530" y="1049.5033333333336" as="sourcePoint" />
          </mxGeometry>
        </mxCell>
        <mxCell id="WSw43saYqRhFsblwPh-P-41" value="&lt;font style=&quot;font-size: 24px;&quot;&gt;pslverr&lt;/font&gt;" style="edgeLabel;html=1;align=center;verticalAlign=middle;resizable=0;points=[];" parent="WSw43saYqRhFsblwPh-P-40" vertex="1" connectable="0">
          <mxGeometry x="0.8825" y="-5" relative="1" as="geometry">
            <mxPoint x="59" y="-4" as="offset" />
          </mxGeometry>
        </mxCell>
        <mxCell id="rp8GgpUDdvHc5RVecQ2j-2" style="edgeStyle=orthogonalEdgeStyle;rounded=0;orthogonalLoop=1;jettySize=auto;html=1;exitX=0;exitY=0.25;exitDx=0;exitDy=0;" parent="1" edge="1">
          <mxGeometry relative="1" as="geometry">
            <mxPoint x="1000" y="253.39" as="targetPoint" />
            <mxPoint x="820" y="254.0328571428572" as="sourcePoint" />
          </mxGeometry>
        </mxCell>
        <mxCell id="rp8GgpUDdvHc5RVecQ2j-11" value="pclk" style="edgeLabel;html=1;align=center;verticalAlign=middle;resizable=0;points=[];" parent="rp8GgpUDdvHc5RVecQ2j-2" vertex="1" connectable="0">
          <mxGeometry x="-0.9795" y="1" relative="1" as="geometry">
            <mxPoint as="offset" />
          </mxGeometry>
        </mxCell>
        <mxCell id="rp8GgpUDdvHc5RVecQ2j-1" value="&lt;font style=&quot;font-size: 36px;&quot;&gt;INT_SENSING&lt;/font&gt;" style="whiteSpace=wrap;html=1;aspect=fixed;" parent="1" vertex="1">
          <mxGeometry x="1000" y="230" width="310" height="310" as="geometry" />
        </mxCell>
        <mxCell id="rp8GgpUDdvHc5RVecQ2j-3" style="edgeStyle=orthogonalEdgeStyle;rounded=0;orthogonalLoop=1;jettySize=auto;html=1;exitX=0;exitY=0.25;exitDx=0;exitDy=0;" parent="1" edge="1">
          <mxGeometry relative="1" as="geometry">
            <mxPoint x="1000" y="284.46" as="targetPoint" />
            <mxPoint x="820" y="284.6028571428572" as="sourcePoint" />
          </mxGeometry>
        </mxCell>
        <mxCell id="rp8GgpUDdvHc5RVecQ2j-12" value="preset_n" style="edgeLabel;html=1;align=center;verticalAlign=middle;resizable=0;points=[];" parent="rp8GgpUDdvHc5RVecQ2j-3" vertex="1" connectable="0">
          <mxGeometry x="-0.9479" y="3" relative="1" as="geometry">
            <mxPoint as="offset" />
          </mxGeometry>
        </mxCell>
        <mxCell id="rp8GgpUDdvHc5RVecQ2j-4" style="edgeStyle=orthogonalEdgeStyle;rounded=0;orthogonalLoop=1;jettySize=auto;html=1;exitX=0;exitY=0.25;exitDx=0;exitDy=0;" parent="1" edge="1">
          <mxGeometry relative="1" as="geometry">
            <mxPoint x="1000" y="315.18" as="targetPoint" />
            <mxPoint x="820" y="315.32285714285723" as="sourcePoint" />
          </mxGeometry>
        </mxCell>
        <mxCell id="rp8GgpUDdvHc5RVecQ2j-13" value="NMI" style="edgeLabel;html=1;align=center;verticalAlign=middle;resizable=0;points=[];" parent="rp8GgpUDdvHc5RVecQ2j-4" vertex="1" connectable="0">
          <mxGeometry x="-0.9634" y="-2" relative="1" as="geometry">
            <mxPoint as="offset" />
          </mxGeometry>
        </mxCell>
        <mxCell id="rp8GgpUDdvHc5RVecQ2j-5" style="edgeStyle=orthogonalEdgeStyle;rounded=0;orthogonalLoop=1;jettySize=auto;html=1;exitX=0;exitY=0.25;exitDx=0;exitDy=0;" parent="1" edge="1">
          <mxGeometry relative="1" as="geometry">
            <mxPoint x="1000" y="346.78" as="targetPoint" />
            <mxPoint x="820" y="347.4228571428572" as="sourcePoint" />
          </mxGeometry>
        </mxCell>
        <mxCell id="rp8GgpUDdvHc5RVecQ2j-14" value="IRQn" style="edgeLabel;html=1;align=center;verticalAlign=middle;resizable=0;points=[];" parent="rp8GgpUDdvHc5RVecQ2j-5" vertex="1" connectable="0">
          <mxGeometry x="-0.9636" relative="1" as="geometry">
            <mxPoint as="offset" />
          </mxGeometry>
        </mxCell>
        <mxCell id="rp8GgpUDdvHc5RVecQ2j-6" style="edgeStyle=orthogonalEdgeStyle;rounded=0;orthogonalLoop=1;jettySize=auto;html=1;exitX=0;exitY=0.25;exitDx=0;exitDy=0;" parent="1" edge="1">
          <mxGeometry relative="1" as="geometry">
            <mxPoint x="1000" y="377.84999999999997" as="targetPoint" />
            <mxPoint x="820" y="377.9928571428572" as="sourcePoint" />
          </mxGeometry>
        </mxCell>
        <mxCell id="rp8GgpUDdvHc5RVecQ2j-15" value="Int_IRQn" style="edgeLabel;html=1;align=center;verticalAlign=middle;resizable=0;points=[];" parent="rp8GgpUDdvHc5RVecQ2j-6" vertex="1" connectable="0">
          <mxGeometry x="-0.9796" y="4" relative="1" as="geometry">
            <mxPoint as="offset" />
          </mxGeometry>
        </mxCell>
        <mxCell id="rp8GgpUDdvHc5RVecQ2j-7" style="edgeStyle=orthogonalEdgeStyle;rounded=0;orthogonalLoop=1;jettySize=auto;html=1;exitX=0;exitY=0.25;exitDx=0;exitDy=0;" parent="1" edge="1">
          <mxGeometry relative="1" as="geometry">
            <mxPoint x="1000" y="408.57" as="targetPoint" />
            <mxPoint x="820" y="408.7128571428572" as="sourcePoint" />
          </mxGeometry>
        </mxCell>
        <mxCell id="rp8GgpUDdvHc5RVecQ2j-18" value="NMI_eg" style="edgeLabel;html=1;align=center;verticalAlign=middle;resizable=0;points=[];" parent="rp8GgpUDdvHc5RVecQ2j-7" vertex="1" connectable="0">
          <mxGeometry x="-0.9158" y="-1" relative="1" as="geometry">
            <mxPoint as="offset" />
          </mxGeometry>
        </mxCell>
        <mxCell id="rp8GgpUDdvHc5RVecQ2j-32" value="2" style="edgeLabel;html=1;align=center;verticalAlign=middle;resizable=0;points=[];" parent="rp8GgpUDdvHc5RVecQ2j-7" vertex="1" connectable="0">
          <mxGeometry x="0.0366" y="2" relative="1" as="geometry">
            <mxPoint as="offset" />
          </mxGeometry>
        </mxCell>
        <mxCell id="rp8GgpUDdvHc5RVecQ2j-8" style="edgeStyle=orthogonalEdgeStyle;rounded=0;orthogonalLoop=1;jettySize=auto;html=1;exitX=0;exitY=0.25;exitDx=0;exitDy=0;" parent="1" edge="1">
          <mxGeometry relative="1" as="geometry">
            <mxPoint x="1000" y="433.92999999999995" as="targetPoint" />
            <mxPoint x="820" y="434.0728571428572" as="sourcePoint" />
          </mxGeometry>
        </mxCell>
        <mxCell id="rp8GgpUDdvHc5RVecQ2j-19" value="IRQ_enable" style="edgeLabel;html=1;align=center;verticalAlign=middle;resizable=0;points=[];" parent="rp8GgpUDdvHc5RVecQ2j-8" vertex="1" connectable="0">
          <mxGeometry x="-0.9793" y="-2" relative="1" as="geometry">
            <mxPoint as="offset" />
          </mxGeometry>
        </mxCell>
        <mxCell id="rp8GgpUDdvHc5RVecQ2j-33" value="8" style="edgeLabel;html=1;align=center;verticalAlign=middle;resizable=0;points=[];" parent="rp8GgpUDdvHc5RVecQ2j-8" vertex="1" connectable="0">
          <mxGeometry x="-0.0279" y="3" relative="1" as="geometry">
            <mxPoint x="1" as="offset" />
          </mxGeometry>
        </mxCell>
        <mxCell id="rp8GgpUDdvHc5RVecQ2j-9" style="edgeStyle=orthogonalEdgeStyle;rounded=0;orthogonalLoop=1;jettySize=auto;html=1;exitX=0;exitY=0.25;exitDx=0;exitDy=0;" parent="1" edge="1">
          <mxGeometry relative="1" as="geometry">
            <mxPoint x="1000" y="464.65" as="targetPoint" />
            <mxPoint x="820" y="464.7928571428572" as="sourcePoint" />
          </mxGeometry>
        </mxCell>
        <mxCell id="rp8GgpUDdvHc5RVecQ2j-20" value="Int_IRQ_enable" style="edgeLabel;html=1;align=center;verticalAlign=middle;resizable=0;points=[];" parent="rp8GgpUDdvHc5RVecQ2j-9" vertex="1" connectable="0">
          <mxGeometry x="-0.9318" relative="1" as="geometry">
            <mxPoint as="offset" />
          </mxGeometry>
        </mxCell>
        <mxCell id="rp8GgpUDdvHc5RVecQ2j-34" value="8" style="edgeLabel;html=1;align=center;verticalAlign=middle;resizable=0;points=[];" parent="rp8GgpUDdvHc5RVecQ2j-9" vertex="1" connectable="0">
          <mxGeometry x="0.0437" y="1" relative="1" as="geometry">
            <mxPoint as="offset" />
          </mxGeometry>
        </mxCell>
        <mxCell id="rp8GgpUDdvHc5RVecQ2j-22" style="edgeStyle=orthogonalEdgeStyle;rounded=0;orthogonalLoop=1;jettySize=auto;html=1;exitX=0;exitY=0.25;exitDx=0;exitDy=0;" parent="1" edge="1">
          <mxGeometry relative="1" as="geometry">
            <mxPoint x="1000" y="489.99999999999994" as="targetPoint" />
            <mxPoint x="820" y="490.14285714285717" as="sourcePoint" />
          </mxGeometry>
        </mxCell>
        <mxCell id="rp8GgpUDdvHc5RVecQ2j-23" value="IRQ_sense" style="edgeLabel;html=1;align=center;verticalAlign=middle;resizable=0;points=[];" parent="rp8GgpUDdvHc5RVecQ2j-22" vertex="1" connectable="0">
          <mxGeometry x="-0.9793" y="-2" relative="1" as="geometry">
            <mxPoint as="offset" />
          </mxGeometry>
        </mxCell>
        <mxCell id="rp8GgpUDdvHc5RVecQ2j-35" value="16" style="edgeLabel;html=1;align=center;verticalAlign=middle;resizable=0;points=[];" parent="rp8GgpUDdvHc5RVecQ2j-22" vertex="1" connectable="0">
          <mxGeometry x="0.0996" y="-5" relative="1" as="geometry">
            <mxPoint as="offset" />
          </mxGeometry>
        </mxCell>
        <mxCell id="rp8GgpUDdvHc5RVecQ2j-24" style="edgeStyle=orthogonalEdgeStyle;rounded=0;orthogonalLoop=1;jettySize=auto;html=1;exitX=0;exitY=0.25;exitDx=0;exitDy=0;" parent="1" edge="1">
          <mxGeometry relative="1" as="geometry">
            <mxPoint x="1000" y="520.72" as="targetPoint" />
            <mxPoint x="820" y="520.8628571428573" as="sourcePoint" />
          </mxGeometry>
        </mxCell>
        <mxCell id="rp8GgpUDdvHc5RVecQ2j-25" value="Int_IRQ_sense" style="edgeLabel;html=1;align=center;verticalAlign=middle;resizable=0;points=[];" parent="rp8GgpUDdvHc5RVecQ2j-24" vertex="1" connectable="0">
          <mxGeometry x="-0.9318" relative="1" as="geometry">
            <mxPoint as="offset" />
          </mxGeometry>
        </mxCell>
        <mxCell id="rp8GgpUDdvHc5RVecQ2j-36" value="16" style="edgeLabel;html=1;align=center;verticalAlign=middle;resizable=0;points=[];" parent="rp8GgpUDdvHc5RVecQ2j-24" vertex="1" connectable="0">
          <mxGeometry x="0.1394" relative="1" as="geometry">
            <mxPoint as="offset" />
          </mxGeometry>
        </mxCell>
        <mxCell id="rp8GgpUDdvHc5RVecQ2j-26" style="edgeStyle=orthogonalEdgeStyle;rounded=0;orthogonalLoop=1;jettySize=auto;html=1;exitX=0;exitY=0.25;exitDx=0;exitDy=0;" parent="1" edge="1">
          <mxGeometry relative="1" as="geometry">
            <mxPoint x="1490" y="279.99999999999994" as="targetPoint" />
            <mxPoint x="1310" y="280.14285714285717" as="sourcePoint" />
          </mxGeometry>
        </mxCell>
        <mxCell id="rp8GgpUDdvHc5RVecQ2j-27" value="NMI_req" style="edgeLabel;html=1;align=center;verticalAlign=middle;resizable=0;points=[];" parent="rp8GgpUDdvHc5RVecQ2j-26" vertex="1" connectable="0">
          <mxGeometry x="-0.9793" y="-2" relative="1" as="geometry">
            <mxPoint x="169" y="-12" as="offset" />
          </mxGeometry>
        </mxCell>
        <mxCell id="rp8GgpUDdvHc5RVecQ2j-28" style="edgeStyle=orthogonalEdgeStyle;rounded=0;orthogonalLoop=1;jettySize=auto;html=1;exitX=0;exitY=0.25;exitDx=0;exitDy=0;" parent="1" edge="1">
          <mxGeometry relative="1" as="geometry">
            <mxPoint x="1490" y="369.28999999999996" as="targetPoint" />
            <mxPoint x="1310" y="369.4328571428572" as="sourcePoint" />
          </mxGeometry>
        </mxCell>
        <mxCell id="rp8GgpUDdvHc5RVecQ2j-29" value="IRQn_req" style="edgeLabel;html=1;align=center;verticalAlign=middle;resizable=0;points=[];" parent="rp8GgpUDdvHc5RVecQ2j-28" vertex="1" connectable="0">
          <mxGeometry x="-0.9318" relative="1" as="geometry">
            <mxPoint x="134" y="-9" as="offset" />
          </mxGeometry>
        </mxCell>
        <mxCell id="rp8GgpUDdvHc5RVecQ2j-30" style="edgeStyle=orthogonalEdgeStyle;rounded=0;orthogonalLoop=1;jettySize=auto;html=1;exitX=0;exitY=0.25;exitDx=0;exitDy=0;" parent="1" edge="1">
          <mxGeometry relative="1" as="geometry">
            <mxPoint x="1490" y="449.28999999999996" as="targetPoint" />
            <mxPoint x="1310" y="449.4328571428572" as="sourcePoint" />
          </mxGeometry>
        </mxCell>
        <mxCell id="rp8GgpUDdvHc5RVecQ2j-31" value="Int_IRQn_req" style="edgeLabel;html=1;align=center;verticalAlign=middle;resizable=0;points=[];" parent="rp8GgpUDdvHc5RVecQ2j-30" vertex="1" connectable="0">
          <mxGeometry x="-0.9318" relative="1" as="geometry">
            <mxPoint x="134" y="-9" as="offset" />
          </mxGeometry>
        </mxCell>
        <mxCell id="rp8GgpUDdvHc5RVecQ2j-37" value="&lt;font style=&quot;font-size: 24px;&quot;&gt;PRIO_DETER&lt;/font&gt;" style="whiteSpace=wrap;html=1;aspect=fixed;" parent="1" vertex="1">
          <mxGeometry x="230" y="1160" width="270" height="270" as="geometry" />
        </mxCell>
        <mxCell id="rp8GgpUDdvHc5RVecQ2j-38" style="edgeStyle=orthogonalEdgeStyle;rounded=0;orthogonalLoop=1;jettySize=auto;html=1;exitX=0;exitY=0.25;exitDx=0;exitDy=0;" parent="1" edge="1">
          <mxGeometry relative="1" as="geometry">
            <mxPoint x="230" y="1189.29" as="targetPoint" />
            <mxPoint x="50" y="1189.432857142857" as="sourcePoint" />
          </mxGeometry>
        </mxCell>
        <mxCell id="rp8GgpUDdvHc5RVecQ2j-39" value="NMI_req" style="edgeLabel;html=1;align=center;verticalAlign=middle;resizable=0;points=[];" parent="rp8GgpUDdvHc5RVecQ2j-38" vertex="1" connectable="0">
          <mxGeometry x="-0.9793" y="-2" relative="1" as="geometry">
            <mxPoint x="19" y="-12" as="offset" />
          </mxGeometry>
        </mxCell>
        <mxCell id="rp8GgpUDdvHc5RVecQ2j-40" style="edgeStyle=orthogonalEdgeStyle;rounded=0;orthogonalLoop=1;jettySize=auto;html=1;exitX=0;exitY=0.25;exitDx=0;exitDy=0;" parent="1" edge="1">
          <mxGeometry relative="1" as="geometry">
            <mxPoint x="230" y="1230" as="targetPoint" />
            <mxPoint x="50" y="1230.1428571428573" as="sourcePoint" />
          </mxGeometry>
        </mxCell>
        <mxCell id="rp8GgpUDdvHc5RVecQ2j-41" value="IRQn_req" style="edgeLabel;html=1;align=center;verticalAlign=middle;resizable=0;points=[];" parent="rp8GgpUDdvHc5RVecQ2j-40" vertex="1" connectable="0">
          <mxGeometry x="-0.9318" relative="1" as="geometry">
            <mxPoint x="14" y="-10" as="offset" />
          </mxGeometry>
        </mxCell>
        <mxCell id="rp8GgpUDdvHc5RVecQ2j-42" style="edgeStyle=orthogonalEdgeStyle;rounded=0;orthogonalLoop=1;jettySize=auto;html=1;exitX=0;exitY=0.25;exitDx=0;exitDy=0;" parent="1" edge="1">
          <mxGeometry relative="1" as="geometry">
            <mxPoint x="230" y="1270" as="targetPoint" />
            <mxPoint x="50" y="1270.1428571428573" as="sourcePoint" />
          </mxGeometry>
        </mxCell>
        <mxCell id="rp8GgpUDdvHc5RVecQ2j-43" value="Int_IRQn_req" style="edgeLabel;html=1;align=center;verticalAlign=middle;resizable=0;points=[];" parent="rp8GgpUDdvHc5RVecQ2j-42" vertex="1" connectable="0">
          <mxGeometry x="-0.9318" relative="1" as="geometry">
            <mxPoint x="4" y="-9" as="offset" />
          </mxGeometry>
        </mxCell>
        <mxCell id="rp8GgpUDdvHc5RVecQ2j-51" style="edgeStyle=orthogonalEdgeStyle;rounded=0;orthogonalLoop=1;jettySize=auto;html=1;exitX=0;exitY=0.25;exitDx=0;exitDy=0;" parent="1" edge="1">
          <mxGeometry relative="1" as="geometry">
            <mxPoint x="230" y="1300" as="targetPoint" />
            <mxPoint x="50" y="1300.1428571428573" as="sourcePoint" />
          </mxGeometry>
        </mxCell>
        <mxCell id="rp8GgpUDdvHc5RVecQ2j-52" value="i_bit" style="edgeLabel;html=1;align=center;verticalAlign=middle;resizable=0;points=[];" parent="rp8GgpUDdvHc5RVecQ2j-51" vertex="1" connectable="0">
          <mxGeometry x="-0.9318" relative="1" as="geometry">
            <mxPoint x="4" y="-9" as="offset" />
          </mxGeometry>
        </mxCell>
        <mxCell id="rp8GgpUDdvHc5RVecQ2j-53" style="edgeStyle=orthogonalEdgeStyle;rounded=0;orthogonalLoop=1;jettySize=auto;html=1;exitX=0;exitY=0.25;exitDx=0;exitDy=0;" parent="1" edge="1">
          <mxGeometry relative="1" as="geometry">
            <mxPoint x="230" y="1330" as="targetPoint" />
            <mxPoint x="50" y="1330.1428571428573" as="sourcePoint" />
          </mxGeometry>
        </mxCell>
        <mxCell id="rp8GgpUDdvHc5RVecQ2j-54" value="prio_config_A" style="edgeLabel;html=1;align=center;verticalAlign=middle;resizable=0;points=[];" parent="rp8GgpUDdvHc5RVecQ2j-53" vertex="1" connectable="0">
          <mxGeometry x="-0.9318" relative="1" as="geometry">
            <mxPoint x="14" y="-10" as="offset" />
          </mxGeometry>
        </mxCell>
        <mxCell id="rp8GgpUDdvHc5RVecQ2j-61" value="8" style="edgeLabel;html=1;align=center;verticalAlign=middle;resizable=0;points=[];" parent="rp8GgpUDdvHc5RVecQ2j-53" vertex="1" connectable="0">
          <mxGeometry x="0.1115" y="-1" relative="1" as="geometry">
            <mxPoint as="offset" />
          </mxGeometry>
        </mxCell>
        <mxCell id="rp8GgpUDdvHc5RVecQ2j-55" style="edgeStyle=orthogonalEdgeStyle;rounded=0;orthogonalLoop=1;jettySize=auto;html=1;exitX=0;exitY=0.25;exitDx=0;exitDy=0;" parent="1" edge="1">
          <mxGeometry relative="1" as="geometry">
            <mxPoint x="230" y="1359.58" as="targetPoint" />
            <mxPoint x="50" y="1359.7228571428573" as="sourcePoint" />
          </mxGeometry>
        </mxCell>
        <mxCell id="rp8GgpUDdvHc5RVecQ2j-56" value="prio_config_B" style="edgeLabel;html=1;align=center;verticalAlign=middle;resizable=0;points=[];" parent="rp8GgpUDdvHc5RVecQ2j-55" vertex="1" connectable="0">
          <mxGeometry x="-0.9318" relative="1" as="geometry">
            <mxPoint x="4" y="-9" as="offset" />
          </mxGeometry>
        </mxCell>
        <mxCell id="rp8GgpUDdvHc5RVecQ2j-62" value="8" style="edgeLabel;html=1;align=center;verticalAlign=middle;resizable=0;points=[];" parent="rp8GgpUDdvHc5RVecQ2j-55" vertex="1" connectable="0">
          <mxGeometry x="0.1763" relative="1" as="geometry">
            <mxPoint as="offset" />
          </mxGeometry>
        </mxCell>
        <mxCell id="rp8GgpUDdvHc5RVecQ2j-57" style="edgeStyle=orthogonalEdgeStyle;rounded=0;orthogonalLoop=1;jettySize=auto;html=1;exitX=0;exitY=0.25;exitDx=0;exitDy=0;" parent="1" edge="1">
          <mxGeometry relative="1" as="geometry">
            <mxPoint x="230" y="1390" as="targetPoint" />
            <mxPoint x="50" y="1390.1428571428573" as="sourcePoint" />
          </mxGeometry>
        </mxCell>
        <mxCell id="rp8GgpUDdvHc5RVecQ2j-58" value="prio_config_C" style="edgeLabel;html=1;align=center;verticalAlign=middle;resizable=0;points=[];" parent="rp8GgpUDdvHc5RVecQ2j-57" vertex="1" connectable="0">
          <mxGeometry x="-0.9318" relative="1" as="geometry">
            <mxPoint x="14" y="-9" as="offset" />
          </mxGeometry>
        </mxCell>
        <mxCell id="rp8GgpUDdvHc5RVecQ2j-63" value="8" style="edgeLabel;html=1;align=center;verticalAlign=middle;resizable=0;points=[];" parent="rp8GgpUDdvHc5RVecQ2j-57" vertex="1" connectable="0">
          <mxGeometry x="0.121" y="3" relative="1" as="geometry">
            <mxPoint as="offset" />
          </mxGeometry>
        </mxCell>
        <mxCell id="rp8GgpUDdvHc5RVecQ2j-59" style="edgeStyle=orthogonalEdgeStyle;rounded=0;orthogonalLoop=1;jettySize=auto;html=1;exitX=0;exitY=0.25;exitDx=0;exitDy=0;" parent="1" edge="1">
          <mxGeometry relative="1" as="geometry">
            <mxPoint x="230" y="1414" as="targetPoint" />
            <mxPoint x="50" y="1414.1428571428573" as="sourcePoint" />
          </mxGeometry>
        </mxCell>
        <mxCell id="rp8GgpUDdvHc5RVecQ2j-60" value="prio_config_D" style="edgeLabel;html=1;align=center;verticalAlign=middle;resizable=0;points=[];" parent="rp8GgpUDdvHc5RVecQ2j-59" vertex="1" connectable="0">
          <mxGeometry x="-0.9318" relative="1" as="geometry">
            <mxPoint x="4" y="-9" as="offset" />
          </mxGeometry>
        </mxCell>
        <mxCell id="rp8GgpUDdvHc5RVecQ2j-64" value="8" style="edgeLabel;html=1;align=center;verticalAlign=middle;resizable=0;points=[];" parent="rp8GgpUDdvHc5RVecQ2j-59" vertex="1" connectable="0">
          <mxGeometry x="0.1025" y="3" relative="1" as="geometry">
            <mxPoint as="offset" />
          </mxGeometry>
        </mxCell>
        <mxCell id="rp8GgpUDdvHc5RVecQ2j-65" style="edgeStyle=orthogonalEdgeStyle;rounded=0;orthogonalLoop=1;jettySize=auto;html=1;exitX=0;exitY=0.25;exitDx=0;exitDy=0;" parent="1" edge="1">
          <mxGeometry relative="1" as="geometry">
            <mxPoint x="680" y="1210" as="targetPoint" />
            <mxPoint x="500" y="1210.142857142857" as="sourcePoint" />
          </mxGeometry>
        </mxCell>
        <mxCell id="rp8GgpUDdvHc5RVecQ2j-66" value="vt_no" style="edgeLabel;html=1;align=center;verticalAlign=middle;resizable=0;points=[];" parent="rp8GgpUDdvHc5RVecQ2j-65" vertex="1" connectable="0">
          <mxGeometry x="-0.9793" y="-2" relative="1" as="geometry">
            <mxPoint x="178" y="-12" as="offset" />
          </mxGeometry>
        </mxCell>
        <mxCell id="rp8GgpUDdvHc5RVecQ2j-69" value="5" style="edgeLabel;html=1;align=center;verticalAlign=middle;resizable=0;points=[];" parent="rp8GgpUDdvHc5RVecQ2j-65" vertex="1" connectable="0">
          <mxGeometry x="-0.2374" relative="1" as="geometry">
            <mxPoint x="1" as="offset" />
          </mxGeometry>
        </mxCell>
        <mxCell id="rp8GgpUDdvHc5RVecQ2j-67" style="edgeStyle=orthogonalEdgeStyle;rounded=0;orthogonalLoop=1;jettySize=auto;html=1;exitX=0;exitY=0.25;exitDx=0;exitDy=0;" parent="1" edge="1">
          <mxGeometry relative="1" as="geometry">
            <mxPoint x="680" y="1350" as="targetPoint" />
            <mxPoint x="500" y="1350.1428571428573" as="sourcePoint" />
          </mxGeometry>
        </mxCell>
        <mxCell id="rp8GgpUDdvHc5RVecQ2j-68" value="intr_ev" style="edgeLabel;html=1;align=center;verticalAlign=middle;resizable=0;points=[];" parent="rp8GgpUDdvHc5RVecQ2j-67" vertex="1" connectable="0">
          <mxGeometry x="-0.9318" relative="1" as="geometry">
            <mxPoint x="174" y="-10" as="offset" />
          </mxGeometry>
        </mxCell>
        <mxCell id="rp8GgpUDdvHc5RVecQ2j-72" style="edgeStyle=orthogonalEdgeStyle;rounded=0;orthogonalLoop=1;jettySize=auto;html=1;exitX=0;exitY=0.25;exitDx=0;exitDy=0;" parent="1" edge="1">
          <mxGeometry relative="1" as="geometry">
            <mxPoint x="1150" y="790.5" as="targetPoint" />
            <mxPoint x="1030" y="790" as="sourcePoint" />
          </mxGeometry>
        </mxCell>
        <mxCell id="TSvLV1GSUGqekrT_QzpO-5" value="pclk" style="edgeLabel;html=1;align=center;verticalAlign=middle;resizable=0;points=[];" vertex="1" connectable="0" parent="rp8GgpUDdvHc5RVecQ2j-72">
          <mxGeometry x="0.1264" y="-1" relative="1" as="geometry">
            <mxPoint x="-67" as="offset" />
          </mxGeometry>
        </mxCell>
        <mxCell id="rp8GgpUDdvHc5RVecQ2j-71" value="EDGE DETECTION" style="whiteSpace=wrap;html=1;aspect=fixed;" parent="1" vertex="1">
          <mxGeometry x="1150" y="770" width="150" height="150" as="geometry" />
        </mxCell>
        <mxCell id="rp8GgpUDdvHc5RVecQ2j-77" style="edgeStyle=orthogonalEdgeStyle;rounded=0;orthogonalLoop=1;jettySize=auto;html=1;exitX=0;exitY=0.25;exitDx=0;exitDy=0;" parent="1" edge="1">
          <mxGeometry relative="1" as="geometry">
            <mxPoint x="1150" y="831" as="targetPoint" />
            <mxPoint x="1030" y="830" as="sourcePoint" />
          </mxGeometry>
        </mxCell>
        <mxCell id="TSvLV1GSUGqekrT_QzpO-6" value="preset_n" style="edgeLabel;html=1;align=center;verticalAlign=middle;resizable=0;points=[];" vertex="1" connectable="0" parent="rp8GgpUDdvHc5RVecQ2j-77">
          <mxGeometry x="-0.232" y="-1" relative="1" as="geometry">
            <mxPoint x="-46" y="-11" as="offset" />
          </mxGeometry>
        </mxCell>
        <mxCell id="rp8GgpUDdvHc5RVecQ2j-79" style="edgeStyle=orthogonalEdgeStyle;rounded=0;orthogonalLoop=1;jettySize=auto;html=1;exitX=0;exitY=0.25;exitDx=0;exitDy=0;" parent="1" edge="1">
          <mxGeometry relative="1" as="geometry">
            <mxPoint x="1150" y="881" as="targetPoint" />
            <mxPoint x="1030" y="880" as="sourcePoint" />
          </mxGeometry>
        </mxCell>
        <mxCell id="TSvLV1GSUGqekrT_QzpO-7" value="data_d" style="edgeLabel;html=1;align=center;verticalAlign=middle;resizable=0;points=[];" vertex="1" connectable="0" parent="rp8GgpUDdvHc5RVecQ2j-79">
          <mxGeometry x="-0.6321" relative="1" as="geometry">
            <mxPoint x="-22" y="-10" as="offset" />
          </mxGeometry>
        </mxCell>
        <mxCell id="TSvLV1GSUGqekrT_QzpO-1" style="edgeStyle=orthogonalEdgeStyle;rounded=0;orthogonalLoop=1;jettySize=auto;html=1;exitX=0;exitY=0.25;exitDx=0;exitDy=0;" edge="1" parent="1">
          <mxGeometry relative="1" as="geometry">
            <mxPoint x="1420" y="790.5" as="targetPoint" />
            <mxPoint x="1300" y="790" as="sourcePoint" />
          </mxGeometry>
        </mxCell>
        <mxCell id="TSvLV1GSUGqekrT_QzpO-8" value="rs_det" style="edgeLabel;html=1;align=center;verticalAlign=middle;resizable=0;points=[];" vertex="1" connectable="0" parent="TSvLV1GSUGqekrT_QzpO-1">
          <mxGeometry x="0.748" relative="1" as="geometry">
            <mxPoint as="offset" />
          </mxGeometry>
        </mxCell>
        <mxCell id="TSvLV1GSUGqekrT_QzpO-2" style="edgeStyle=orthogonalEdgeStyle;rounded=0;orthogonalLoop=1;jettySize=auto;html=1;exitX=0;exitY=0.25;exitDx=0;exitDy=0;" edge="1" parent="1">
          <mxGeometry relative="1" as="geometry">
            <mxPoint x="1420" y="890.26" as="targetPoint" />
            <mxPoint x="1300" y="889.26" as="sourcePoint" />
          </mxGeometry>
        </mxCell>
        <mxCell id="TSvLV1GSUGqekrT_QzpO-11" value="lv_det" style="edgeLabel;html=1;align=center;verticalAlign=middle;resizable=0;points=[];" vertex="1" connectable="0" parent="TSvLV1GSUGqekrT_QzpO-2">
          <mxGeometry x="0.6414" y="1" relative="1" as="geometry">
            <mxPoint as="offset" />
          </mxGeometry>
        </mxCell>
        <mxCell id="TSvLV1GSUGqekrT_QzpO-3" style="edgeStyle=orthogonalEdgeStyle;rounded=0;orthogonalLoop=1;jettySize=auto;html=1;exitX=0;exitY=0.25;exitDx=0;exitDy=0;" edge="1" parent="1">
          <mxGeometry relative="1" as="geometry">
            <mxPoint x="1420" y="821" as="targetPoint" />
            <mxPoint x="1300" y="820" as="sourcePoint" />
          </mxGeometry>
        </mxCell>
        <mxCell id="TSvLV1GSUGqekrT_QzpO-9" value="fl_det" style="edgeLabel;html=1;align=center;verticalAlign=middle;resizable=0;points=[];" vertex="1" connectable="0" parent="TSvLV1GSUGqekrT_QzpO-3">
          <mxGeometry x="0.6646" y="2" relative="1" as="geometry">
            <mxPoint as="offset" />
          </mxGeometry>
        </mxCell>
        <mxCell id="TSvLV1GSUGqekrT_QzpO-4" style="edgeStyle=orthogonalEdgeStyle;rounded=0;orthogonalLoop=1;jettySize=auto;html=1;exitX=0;exitY=0.25;exitDx=0;exitDy=0;" edge="1" parent="1">
          <mxGeometry relative="1" as="geometry">
            <mxPoint x="1420" y="851" as="targetPoint" />
            <mxPoint x="1300" y="850" as="sourcePoint" />
          </mxGeometry>
        </mxCell>
        <mxCell id="TSvLV1GSUGqekrT_QzpO-10" value="ed_det" style="edgeLabel;html=1;align=center;verticalAlign=middle;resizable=0;points=[];" vertex="1" connectable="0" parent="TSvLV1GSUGqekrT_QzpO-4">
          <mxGeometry x="0.6878" y="3" relative="1" as="geometry">
            <mxPoint as="offset" />
          </mxGeometry>
        </mxCell>
      </root>
    </mxGraphModel>
  </diagram>
</mxfile>
